<svg version="1.1" xmlns="http://www.w3.org/2000/svg" xmlns:xlink="http://www.w3.org/1999/xlink" width="41.62465" height="45.90818" viewBox="0,0,41.62465,45.90818"><defs><radialGradient cx="239.7738" cy="183.21379" r="16.89591" gradientUnits="userSpaceOnUse" id="color-1"><stop offset="0" stop-color="#7d7d7d"/><stop offset="1" stop-color="#515151"/></radialGradient><radialGradient cx="239.78744" cy="166.14203" r="8.59611" gradientUnits="userSpaceOnUse" id="color-2"><stop offset="0" stop-color="#6c6c6c"/><stop offset="1" stop-color="#515151"/></radialGradient><radialGradient cx="239.59207" cy="183.5296" r="12.63368" gradientUnits="userSpaceOnUse" id="color-3"><stop offset="0" stop-color="#00b4c8"/><stop offset="1" stop-color="#007182"/></radialGradient></defs><g transform="translate(-219.18767,-157.54591)"><g data-paper-data="{&quot;isPaintingLayer&quot;:true}" fill-rule="nonzero" stroke-linecap="butt" stroke-linejoin="miter" stroke-miterlimit="10" stroke-dasharray="" stroke-dashoffset="0" style="mix-blend-mode: normal"><path d="M256.4444,183.21379c0,3.85668 4.97677,9.52326 2.83074,10.5657c-3.04635,1.47977 -14.49043,8.6746 -19.8921,8.6746c-5.42044,0 -15.57667,-7.45191 -18.62135,-8.95058c-2.12689,-1.04691 2.34145,-6.45205 2.34145,-10.28972c0,-9.33135 7.46369,-16.89591 16.67063,-16.89591c9.20693,0 16.67063,7.56455 16.67063,16.89591z" fill="url(#color-1)" stroke="#515151" stroke-width="2"/><path d="M236.9872,174.73813v-17.19222h5.6005v17.19222z" fill="url(#color-2)" stroke="none" stroke-width="0"/><path d="M252.22574,183.5296c0,0 -6.1515,0.23707 -7.70972,3.12749c-2.47447,4.58999 -4.66347,12.30644 -4.66347,12.30644c0,0 -1.83743,-7.84044 -3.9443,-11.41647c-2.26591,-3.846 -8.94987,-4.01745 -8.94987,-4.01745c0,0 5.65629,-5.0144 12.63368,-5.0144c6.97739,0 12.63368,5.0144 12.63368,5.0144z" fill="url(#color-3)" stroke="none" stroke-width="0"/></g></g></svg>