<svg version="1.1" xmlns="http://www.w3.org/2000/svg" xmlns:xlink="http://www.w3.org/1999/xlink" width="61.13139" height="55.32661" viewBox="0,0,61.13139,55.32661"><defs><linearGradient x1="266.16296" y1="175.07019" x2="237.39297" y2="204.37638" gradientUnits="userSpaceOnUse" id="color-1"><stop offset="0" stop-color="#9d9d9d"/><stop offset="1" stop-color="#b2b2b2"/></linearGradient><linearGradient x1="269.76278" y1="190.87129" x2="237.1846" y2="205.19859" gradientUnits="userSpaceOnUse" id="color-2"><stop offset="0" stop-color="#9d9d9d"/><stop offset="1" stop-color="#b8b8b8"/></linearGradient><linearGradient x1="257.5143" y1="164.4572" x2="235.3858" y2="189.99565" gradientUnits="userSpaceOnUse" id="color-3"><stop offset="0" stop-color="#ababab"/><stop offset="1" stop-color="#ababab"/></linearGradient><linearGradient x1="267.53464" y1="174.523" x2="251.68608" y2="192.81378" gradientUnits="userSpaceOnUse" id="color-4"><stop offset="0" stop-color="#c1c1c1"/><stop offset="1" stop-color="#dbdbdb"/></linearGradient><linearGradient x1="255.83685" y1="160.52212" x2="246.86745" y2="186.40935" gradientUnits="userSpaceOnUse" id="color-5"><stop offset="0" stop-color="#c1c1c1"/><stop offset="1" stop-color="#dbdbdb"/></linearGradient><linearGradient x1="240.78527" y1="159.04558" x2="232.18844" y2="199.9937" gradientUnits="userSpaceOnUse" id="color-6"><stop offset="0" stop-color="#ababab"/><stop offset="1" stop-color="#ababab"/></linearGradient><linearGradient x1="240.17339" y1="152.20092" x2="242.16887" y2="176.73752" gradientUnits="userSpaceOnUse" id="color-7"><stop offset="0" stop-color="#c1c1c1"/><stop offset="1" stop-color="#dbdbdb"/></linearGradient><linearGradient x1="269.75669" y1="191.76218" x2="252.34623" y2="198.29171" gradientUnits="userSpaceOnUse" id="color-8"><stop offset="0" stop-color="#c1c1c1"/><stop offset="1" stop-color="#dbdbdb"/></linearGradient><linearGradient x1="212.6533" y1="172.45473" x2="244.02024" y2="200.14565" gradientUnits="userSpaceOnUse" id="color-9"><stop offset="0" stop-color="#acacac"/><stop offset="1" stop-color="#afafaf"/></linearGradient><linearGradient x1="209.79392" y1="171.20317" x2="229.84852" y2="185.48042" gradientUnits="userSpaceOnUse" id="color-10"><stop offset="0" stop-color="#c1c1c1"/><stop offset="1" stop-color="#dbdbdb"/></linearGradient></defs><g transform="translate(-209.43936,-152.21169)"><g data-paper-data="{&quot;isPaintingLayer&quot;:true}" fill-rule="nonzero" stroke-linecap="butt" stroke-linejoin="miter" stroke-miterlimit="10" stroke-dasharray="" stroke-dashoffset="0" style="mix-blend-mode: normal"><path d="M263.12371,175.242c1.69208,-0.01452 3.19126,-0.14172 3.74703,2.38121c0.72345,3.28419 -0.77978,5.95426 -2.71067,8.23481c-3.0221,3.56935 -3.87349,2.03746 -3.87349,2.03746c0,0 -5.71299,2.65115 -7.85363,4.48087c-1.10766,0.94678 -3.77383,1.94597 -5.92146,3.45431c-2.0632,1.44903 -2.09723,3.76587 -3.71406,3.81386c-1.09584,0.03252 -2.90305,-2.24505 -3.12637,-4.40539c-0.16694,-1.61504 2.15534,-7.5156 4.01698,-7.93349c3.8572,-0.86585 6.1746,-2.57448 7.81215,-3.27716c2.28711,-0.98141 6.51826,-4.81618 6.51826,-4.81618c0,0 2.29046,-3.94617 5.10525,-3.9703z" fill="url(#color-1)" stroke="none" stroke-width="0"/><path d="M267.92303,190.14924c0.97983,0.46402 1.91058,0.78774 0.84775,2.87268c-1.38353,2.71403 -3.70957,4.33332 -6.06788,5.53471c-3.69106,1.88032 -3.34091,0.47007 -3.34091,0.47007c0,0 -4.73363,0.42273 -6.96544,1.22055c-1.15484,0.41283 -3.23354,0.4281 -5.29332,0.97824c-1.97879,0.5285 -3.26749,2.29027 -4.22242,1.87296c-0.64722,-0.28284 -0.43759,-2.53159 0.61757,-4.24597c0.78882,-1.28163 5.35493,-5.14078 6.65311,-4.93753c2.68975,0.42111 4.95677,-0.23449 6.28224,-0.31191c1.85125,-0.10813 6.38213,-1.85187 6.38213,-1.85187c0,0 3.47724,-2.37386 5.10719,-1.60193z" fill="url(#color-2)" stroke="none" stroke-width="0"/><path d="M253.09806,163.19063c1.70779,-0.31086 3.18645,-0.70947 4.5093,1.91218c1.72197,3.4127 -9.47145,15.27086 -11.08598,17.61596c-0.83542,1.21347 -2.30838,3.55568 -4.02686,5.55569c-1.65092,1.92137 -0.987,4.42386 -2.60857,4.75764c-1.09904,0.22623 -3.61423,-1.91269 -4.49138,-4.20164c-0.65573,-1.71117 -0.08447,-8.47455 1.67332,-9.24966c3.64202,-1.60595 5.47192,-3.85142 6.9171,-4.8943c2.01844,-1.45656 5.14395,-6.32693 5.14395,-6.32693c0,0 1.12818,-4.65185 3.96912,-5.16894z" fill="url(#color-3)" stroke="none" stroke-width="0"/><path d="M264.83536,174.16171c1.53125,0.26479 2.84785,0.40972 4.2369,2.47931c1.80816,2.69406 1.37928,4.543 0.42557,6.01662c-1.49269,2.30639 -2.80273,0.96588 -2.80273,0.96588c0,0 -4.25781,1.14698 -5.56,2.23274c-1.32113,1.10156 -1.16469,1.63859 -3.59163,1.98372c-2.91442,0.41446 -6.70892,0.75872 -11.08045,0.44815c2.12851,-3.43791 4.11186,-5.99581 5.80051,-7.87357c1.35631,-1.50821 2.01345,-0.60766 3.25395,-0.89154c1.73257,-0.39649 6.07432,-3.08042 6.07432,-3.08042c0,0 0.6963,-2.72136 3.24356,-2.28088z" fill="url(#color-4)" stroke="#c1c1c1" stroke-width="0.5"/><path d="M252.97813,161.56061c1.64461,-0.5311 3.027,-1.06799 5.21931,0.22386c2.85379,1.68165 3.12949,3.69487 2.73253,5.61425c-0.62131,3.00407 -2.45484,2.37843 -2.45484,2.37843c0,0 -3.85195,3.30264 -4.74861,5.02528c-0.9097,1.74769 -0.54642,2.18787 -2.86021,3.77114c-2.77853,1.90129 -6.4709,4.1873 -10.99553,6.13532c0.82887,-4.42822 1.84836,-7.92856 2.83127,-10.6179c0.78947,-2.16005 1.79653,-1.62506 2.93804,-2.53851c1.59431,-1.2758 4.94241,-6.11174 4.94241,-6.11174c0,0 -0.34021,-2.99665 2.39563,-3.88014z" fill="url(#color-5)" stroke="#c1c1c1" stroke-width="0.5"/><path d="M238.10662,160.6199c1.54044,-0.80015 2.83605,-1.61667 4.8725,0.49896c2.65089,2.754 -4.55262,17.38336 -5.40467,20.10002c-0.44088,1.40572 -1.1585,4.07791 -2.21155,6.49541c-1.01166,2.32244 0.35999,4.5183 -1.0913,5.31497c-0.98363,0.53995 -4.01729,-0.76313 -5.52981,-2.6921c-1.13072,-1.44207 -2.57719,-8.07362 -1.12574,-9.33215c3.00732,-2.60757 4.09454,-5.29245 5.16838,-6.71478c1.4998,-1.98652 3.05188,-7.5615 3.05188,-7.5615c0,0 -0.29224,-4.77777 2.27031,-6.10882z" fill="url(#color-6)" stroke="none" stroke-width="0"/><path d="M237.98853,153.90387c1.28289,-0.92344 2.32584,-1.77637 4.81813,-1.31112c3.24428,0.60565 4.28157,2.23395 4.67248,3.9761c0.61182,2.72668 -1.29471,2.72332 -1.29471,2.72332c0,0 -2.19953,3.90901 -2.33847,5.62799c-0.14096,1.74398 0.36047,2.01284 -1.11741,4.02116c-1.77472,2.4117 -4.22724,5.41253 -7.56627,8.36603c-0.98071,-3.99431 -1.42572,-7.25645 -1.58671,-9.82016c-0.1293,-2.05916 0.99271,-1.895 1.67006,-2.99805c0.94603,-1.54061 2.08919,-6.60524 2.08919,-6.60524c0,0 -1.48039,-2.44388 0.65371,-3.98003z" fill="url(#color-7)" stroke="#c1c1c1" stroke-width="0.5"/><path d="M268.06731,190.52766c0.9364,0.74071 1.77191,1.32173 1.94993,3.22847c0.23174,2.48207 -0.73631,3.57268 -1.92088,4.21733c-1.85402,1.00895 -2.24629,-0.37666 -2.24629,-0.37666c0,0 -3.29493,-0.78844 -4.57238,-0.53348c-1.29602,0.25867 -1.38751,0.67858 -3.15235,0.02083c-2.11931,-0.78985 -4.8069,-1.9501 -7.64365,-3.76412c2.69846,-1.53938 4.97596,-2.53803 6.80494,-3.18574c1.46902,-0.52024 1.58207,0.32879 2.52358,0.59244c1.31498,0.36824 5.23065,0.15007 5.23065,0.15007c0,0 1.46875,-1.58133 3.02646,-0.34915z" fill="url(#color-8)" stroke="#c1c1c1" stroke-width="0.5"/><path d="M212.60553,175.67248c0.11985,-1.79957 0.09463,-3.38256 3.03971,-4.22648c2.44158,-0.69962 7.28105,5.06447 12.03673,10.01148c2.71155,2.82065 6.38483,5.49396 7.08588,6.25487c0.99898,1.08427 3.43317,2.66117 4.99375,4.79619c1.49921,2.0511 3.9839,7.48811 3.90859,9.20424c-0.05104,1.16314 -2.97465,5.36513 -5.47609,5.81892c-1.87003,0.33924 -16.76924,-12.48968 -17.09939,-14.42939c-0.68405,-4.01893 -1.9424,-3.51988 -2.61801,-5.19257c-0.9436,-2.3362 -1.71913,-7.20046 -1.71913,-7.20046c0,0 -4.35145,-2.04321 -4.15204,-5.03681z" fill="url(#color-9)" stroke="none" stroke-width="0"/><path d="M209.68936,173.97133c0.1199,-1.57612 0.13921,-2.92328 2.10035,-4.5301c2.55289,-2.09163 4.46657,-1.83635 6.05101,-1.01328c2.47985,1.28821 1.2493,2.74445 1.2493,2.74445c0,0 1.57352,4.20027 2.79897,5.41373c1.24327,1.23111 1.77191,1.02071 2.35629,3.44475c0.70177,2.91091 1.41762,6.71977 1.52627,11.17628c-3.68712,-1.82249 -6.46914,-3.58317 -8.53394,-5.11128c-1.65844,-1.22737 -0.81018,-1.97993 -1.2177,-3.20853c-0.56916,-1.71596 -3.70708,-5.85247 -3.70708,-5.85247c0,0 -2.82295,-0.44164 -2.62348,-3.06354z" fill="url(#color-10)" stroke="#c1c1c1" stroke-width="0.5"/></g></g></svg>