<svg version="1.1" xmlns="http://www.w3.org/2000/svg" xmlns:xlink="http://www.w3.org/1999/xlink" width="28.42475" height="44.01736" viewBox="0,0,28.42475,44.01736"><defs><radialGradient cx="240.13788" cy="181.73795" r="20.27073" gradientUnits="userSpaceOnUse" id="color-1"><stop offset="0" stop-color="#919191"/><stop offset="1" stop-color="#000000"/></radialGradient><radialGradient cx="240.76909" cy="169.97506" r="11.12874" gradientUnits="userSpaceOnUse" id="color-2"><stop offset="0" stop-color="#ffffff"/><stop offset="1" stop-color="#00f9ff"/></radialGradient><radialGradient cx="238.33862" cy="158.13127" r="20.27073" gradientUnits="userSpaceOnUse" id="color-3"><stop offset="0" stop-color="#919191"/><stop offset="1" stop-color="#000000"/></radialGradient><radialGradient cx="249.80354" cy="163.80315" r="20.27073" gradientUnits="userSpaceOnUse" id="color-4"><stop offset="0" stop-color="#919191"/><stop offset="1" stop-color="#000000"/></radialGradient></defs><g transform="translate(-225.78762,-157.99132)"><g data-paper-data="{&quot;isPaintingLayer&quot;:true}" fill-rule="nonzero" stroke="none" stroke-linecap="butt" stroke-linejoin="miter" stroke-miterlimit="10" stroke-dasharray="" stroke-dashoffset="0" style="mix-blend-mode: normal"><path d="M225.78762,200.5404c0,0 8.76976,-20.54408 10.47159,-24.48719c0.05853,-0.13562 -1.08085,-2.48982 -1.08085,-2.48982l5.89285,2.5803l-2.61304,0.80524l-10.89773,25.05975z" fill="url(#color-1)" stroke-width="1.5"/><path d="M233.13618,159.82363l20.29359,9.14138l-5.02776,11.16148l-20.2936,-9.14138z" fill="url(#color-2)" stroke-width="0"/><path d="M226.5588,171.54406c0,0 3.96052,-9.59892 5.66235,-13.54203c0.05853,-0.13562 1.61853,1.06156 1.61853,1.06156l-5.42515,13.11957z" fill="url(#color-3)" stroke-width="1.5"/><path d="M246.84718,180.75021l5.46982,-13.10101c0,0 1.94905,0.26088 1.89424,0.39804c-1.59367,3.98805 -5.60185,13.56717 -5.60185,13.56717z" data-paper-data="{&quot;index&quot;:null}" fill="url(#color-4)" stroke-width="1.5"/></g></g></svg>