<svg version="1.1" xmlns="http://www.w3.org/2000/svg" xmlns:xlink="http://www.w3.org/1999/xlink" width="34.67868" height="34.11055" viewBox="0,0,34.67868,34.11055"><defs><radialGradient cx="240" cy="180" r="15.83934" gradientUnits="userSpaceOnUse" id="color-1"><stop offset="0" stop-color="#91a0ff"/><stop offset="1" stop-color="#333a5a"/></radialGradient><linearGradient x1="234.05138" y1="187.28133" x2="229.44392" y2="192.71928" gradientUnits="userSpaceOnUse" id="color-2"><stop offset="0" stop-color="#919191"/><stop offset="1" stop-color="#000000"/></linearGradient><linearGradient x1="248.86082" y1="168.22605" x2="233.57596" y2="188.94407" gradientUnits="userSpaceOnUse" id="color-3"><stop offset="0" stop-color="#ffffff"/><stop offset="1" stop-color="#6effff"/></linearGradient><linearGradient x1="235.30812" y1="187.82936" x2="231.08599" y2="189.77349" gradientUnits="userSpaceOnUse" id="color-4"><stop offset="0" stop-color="#919191"/><stop offset="1" stop-color="#000000"/></linearGradient><linearGradient x1="245.94862" y1="187.28133" x2="250.55609" y2="192.71928" gradientUnits="userSpaceOnUse" id="color-5"><stop offset="0" stop-color="#919191"/><stop offset="1" stop-color="#000000"/></linearGradient><linearGradient x1="231.13918" y1="168.22605" x2="246.42404" y2="188.94407" gradientUnits="userSpaceOnUse" id="color-6"><stop offset="0" stop-color="#ffffff"/><stop offset="1" stop-color="#6effff"/></linearGradient><linearGradient x1="244.69188" y1="187.82936" x2="248.91401" y2="189.77349" gradientUnits="userSpaceOnUse" id="color-7"><stop offset="0" stop-color="#919191"/><stop offset="1" stop-color="#000000"/></linearGradient></defs><g transform="translate(-222.66066,-162.94472)"><g data-paper-data="{&quot;isPaintingLayer&quot;:true}" fill-rule="nonzero" stroke-linecap="butt" stroke-linejoin="miter" stroke-miterlimit="10" stroke-dasharray="" stroke-dashoffset="0" style="mix-blend-mode: normal"><path d="M224.16066,195.55528v-31.11055h31.67868v31.11055z" fill="url(#color-1)" stroke="#2d334f" stroke-width="3"/><g stroke="none" stroke-width="0"><path d="M228.94476,191.94778l4.60747,-5.43797l0.99829,1.54301l-4.60747,5.43797z" fill="url(#color-2)"/><path d="M231.59833,186.26674c0,0 4.34958,-9.45338 19.45691,-19.75754c-10.36695,23.28915 -16.78084,24.03812 -16.78084,24.03812z" fill="url(#color-3)"/><path d="M230.11795,187.10421l0.49183,-2.4865l5.13521,7.01066l-2.14219,-0.00281z" fill="url(#color-4)"/></g><g data-paper-data="{&quot;index&quot;:null}" stroke="none" stroke-width="0"><path d="M250.05695,193.4908l-4.60748,-5.43797l0.99829,-1.54301l4.60748,5.43797z" fill="url(#color-5)"/><path d="M245.7256,190.54733c0,0 -6.41389,-0.74897 -16.78084,-24.03812c15.10732,10.30415 19.45691,19.75754 19.45691,19.75754z" fill="url(#color-6)"/><path d="M246.3972,191.62556l-2.14219,0.0028l5.13521,-7.01066l0.49183,2.4865z" fill="url(#color-7)"/></g></g></g></svg>