<svg version="1.1" xmlns="http://www.w3.org/2000/svg" xmlns:xlink="http://www.w3.org/1999/xlink" width="26.38102" height="21.26039" viewBox="0,0,26.38102,21.26039"><defs><radialGradient cx="240" cy="180" r="13.19051" gradientUnits="userSpaceOnUse" id="color-1"><stop offset="0" stop-color="#ffffff"/><stop offset="1" stop-color="#bebebe"/></radialGradient><radialGradient cx="240" cy="172.22127" r="13.19051" gradientUnits="userSpaceOnUse" id="color-2"><stop offset="0" stop-color="#ffffff"/><stop offset="1" stop-color="#bebebe"/></radialGradient><radialGradient cx="240" cy="187.77873" r="13.19051" gradientUnits="userSpaceOnUse" id="color-3"><stop offset="0" stop-color="#ffffff"/><stop offset="1" stop-color="#bebebe"/></radialGradient></defs><g transform="translate(-226.80949,-169.3698)"><g data-paper-data="{&quot;isPaintingLayer&quot;:true}" fill-rule="nonzero" stroke="none" stroke-width="0" stroke-linecap="butt" stroke-linejoin="miter" stroke-miterlimit="10" stroke-dasharray="" stroke-dashoffset="0" style="mix-blend-mode: normal"><g><g fill="url(#color-1)"><path d="M226.80949,180.39435c0,-0.41688 0,-1.04507 0,-1.63808c0,-0.83908 0.77774,-1.60774 2.05527,-1.60774c5.14431,0 18.39255,0 21.59562,0c1.35852,0 2.73013,1.34666 2.73013,2.15377c0,0.45481 0,1.19423 0,1.88075c0,0.87741 -0.99366,1.66841 -2.05527,1.66841c-2.8683,0 -16.23494,0 -21.84103,0c-1.53222,0 -2.48473,-1.58117 -2.48473,-2.45711z"/><path d="M250.70578,182.85146c-5.60608,0 -18.97272,0 -21.84103,0c-1.0616,0 -2.05527,-0.791 -2.05527,-1.66841c0,-0.68652 0,-1.42594 0,-1.88075c0,-0.8071 1.37161,-2.15377 2.73013,-2.15377c3.20306,0 16.45132,0 21.59562,0c1.27752,0 2.05527,0.76865 2.05527,1.60774c0,0.59301 0,1.22119 0,1.63808c0,0.87594 -0.95251,2.45711 -2.48473,2.45711z" data-paper-data="{&quot;index&quot;:null}"/></g><g fill="url(#color-2)"><path d="M226.80949,172.61562c0,-0.41688 0,-1.04507 0,-1.63808c0,-0.83908 0.77774,-1.60774 2.05527,-1.60774c5.14431,0 18.39255,0 21.59562,0c1.35852,0 2.73013,1.34666 2.73013,2.15377c0,0.45481 0,1.19423 0,1.88075c0,0.87741 -0.99366,1.66841 -2.05527,1.66841c-2.8683,0 -16.23494,0 -21.84103,0c-1.53222,0 -2.48473,-1.58117 -2.48473,-2.45711z"/><path d="M250.70578,175.07273c-5.60608,0 -18.97272,0 -21.84103,0c-1.0616,0 -2.05527,-0.791 -2.05527,-1.66841c0,-0.68652 0,-1.42594 0,-1.88075c0,-0.8071 1.37161,-2.15377 2.73013,-2.15377c3.20306,0 16.45132,0 21.59562,0c1.27752,0 2.05527,0.76865 2.05527,1.60774c0,0.59301 0,1.22119 0,1.63808c0,0.87594 -0.95251,2.45711 -2.48473,2.45711z" data-paper-data="{&quot;index&quot;:null}"/></g><g fill="url(#color-3)"><path d="M226.80949,188.17309c0,-0.41688 0,-1.04507 0,-1.63808c0,-0.83908 0.77774,-1.60774 2.05527,-1.60774c5.14431,0 18.39255,0 21.59562,0c1.35852,0 2.73013,1.34666 2.73013,2.15377c0,0.45481 0,1.19423 0,1.88075c0,0.87741 -0.99366,1.66841 -2.05527,1.66841c-2.8683,0 -16.23494,0 -21.84103,0c-1.53222,0 -2.48473,-1.58117 -2.48473,-2.45711z"/><path d="M250.70578,190.6302c-5.60608,0 -18.97272,0 -21.84103,0c-1.0616,0 -2.05527,-0.791 -2.05527,-1.66841c0,-0.68652 0,-1.42594 0,-1.88075c0,-0.8071 1.37161,-2.15377 2.73013,-2.15377c3.20306,0 16.45132,0 21.59562,0c1.27752,0 2.05527,0.76865 2.05527,1.60774c0,0.59301 0,1.22119 0,1.63808c0,0.87594 -0.95251,2.45711 -2.48473,2.45711z" data-paper-data="{&quot;index&quot;:null}"/></g></g></g></g></svg>