<svg version="1.1" xmlns="http://www.w3.org/2000/svg" xmlns:xlink="http://www.w3.org/1999/xlink" width="51.83177" height="75.04827" viewBox="0,0,51.83177,75.04827"><defs><linearGradient x1="220.03967" y1="166.41337" x2="220.03967" y2="172.03837" gradientUnits="userSpaceOnUse" id="color-1"><stop offset="0" stop-color="#7f7f7f"/><stop offset="1" stop-color="#0c0c0c"/></linearGradient><linearGradient x1="219.97624" y1="172.53837" x2="219.97624" y2="177.80745" gradientUnits="userSpaceOnUse" id="color-2"><stop offset="0" stop-color="#919191"/><stop offset="1" stop-color="#000000"/></linearGradient><linearGradient x1="219.97624" y1="191.7813" x2="219.97624" y2="186.51223" gradientUnits="userSpaceOnUse" id="color-3"><stop offset="0" stop-color="#919191"/><stop offset="1" stop-color="#000000"/></linearGradient><linearGradient x1="218.1656" y1="180.11754" x2="220.60783" y2="186.17304" gradientUnits="userSpaceOnUse" id="color-4"><stop offset="0" stop-color="#ffffff"/><stop offset="1" stop-color="#00ffff"/></linearGradient><linearGradient x1="220.054" y1="180.05582" x2="219.89291" y2="186.58323" gradientUnits="userSpaceOnUse" id="color-5"><stop offset="0" stop-color="#ffffff"/><stop offset="1" stop-color="#00ffff"/></linearGradient><linearGradient x1="221.66679" y1="180.16651" x2="220.07753" y2="186.49952" gradientUnits="userSpaceOnUse" id="color-6"><stop offset="0" stop-color="#ffffff"/><stop offset="1" stop-color="#00ffff"/></linearGradient><radialGradient cx="215.47236" cy="182.15612" r="4.65385" gradientUnits="userSpaceOnUse" id="color-7"><stop offset="0" stop-color="#1a1a1a" stop-opacity="0"/><stop offset="1" stop-color="#1a1a1a"/></radialGradient><radialGradient cx="225.24159" cy="182.38687" r="4.65384" gradientUnits="userSpaceOnUse" id="color-8"><stop offset="0" stop-color="#1a1a1a" stop-opacity="0"/><stop offset="1" stop-color="#1a1a1a"/></radialGradient><radialGradient cx="220.12395" cy="182.21039" r="4.65385" gradientUnits="userSpaceOnUse" id="color-9"><stop offset="0" stop-color="#1a1a1a" stop-opacity="0"/><stop offset="1" stop-color="#1a1a1a"/></radialGradient><radialGradient cx="230.05611" cy="174.44997" r="10.81284" gradientUnits="userSpaceOnUse" id="color-10"><stop offset="0" stop-color="#f9f9f9"/><stop offset="1" stop-color="#cccccc"/></radialGradient><radialGradient cx="254.62282" cy="182.82437" r="11.06112" gradientUnits="userSpaceOnUse" id="color-11"><stop offset="0" stop-color="#f9f9f9"/><stop offset="1" stop-color="#cccccc"/></radialGradient><radialGradient cx="234.58967" cy="209.20034" r="8.32383" gradientUnits="userSpaceOnUse" id="color-12"><stop offset="0" stop-color="#f9f9f9"/><stop offset="1" stop-color="#cccccc"/></radialGradient><radialGradient cx="250.78967" cy="208.80034" r="8.32383" gradientUnits="userSpaceOnUse" id="color-13"><stop offset="0" stop-color="#f9f9f9"/><stop offset="1" stop-color="#cccccc"/></radialGradient><radialGradient cx="242.78967" cy="183.97587" r="20.625" gradientUnits="userSpaceOnUse" id="color-14"><stop offset="0" stop-color="#f9f9f9"/><stop offset="1" stop-color="#cccccc"/></radialGradient><radialGradient cx="242.28967" cy="159.22587" r="16.75" gradientUnits="userSpaceOnUse" id="color-15"><stop offset="0" stop-color="#f9f9f9"/><stop offset="1" stop-color="#cccccc"/></radialGradient><radialGradient cx="220.25291" cy="182.0843" r="4.58823" gradientUnits="userSpaceOnUse" id="color-16"><stop offset="0" stop-color="#a8ffff"/><stop offset="1" stop-color="#a8ffff" stop-opacity="0"/></radialGradient></defs><g transform="translate(-213.85217,-142.47587)"><g data-paper-data="{&quot;isPaintingLayer&quot;:true}" fill-rule="nonzero" stroke-linecap="butt" stroke-linejoin="miter" stroke-miterlimit="10" stroke-dasharray="" stroke-dashoffset="0" style="mix-blend-mode: normal"><path d="M223.22717,169.22587c0,1.5533 -1.42709,2.8125 -3.1875,2.8125c-1.76041,0 -3.1875,-1.2592 -3.1875,-2.8125c0,-1.5533 1.42709,-2.8125 3.1875,-2.8125c1.76041,0 3.1875,1.2592 3.1875,2.8125z" fill="none" stroke="url(#color-1)" stroke-width="1"/><path d="M226.47717,176.92928c0,1.45501 -3.53498,0.87817 -6.50093,0.87817c-2.96596,0 -6.12407,0.77199 -6.12407,-0.68302c0,-1.45501 3.15811,-4.58603 6.12407,-4.58603c2.96596,0 6.50093,2.93587 6.50093,4.39087z" fill="url(#color-2)" stroke="none" stroke-width="0"/><path d="M219.97624,191.7813c-2.96596,0 -6.12407,-3.13102 -6.12407,-4.58603c0,-1.45501 3.15811,-0.68302 6.12407,-0.68302c2.96596,0 6.50093,-0.57683 6.50093,0.87817c0,1.45501 -3.53498,4.39087 -6.50093,4.39087z" data-paper-data="{&quot;index&quot;:null}" fill="url(#color-3)" stroke="none" stroke-width="0"/><g stroke="none" stroke-width="0"><path d="M221.43866,182.57141c0.67441,1.67218 0.36773,2.80107 -0.77718,3.26282c-1.14491,0.46176 -2.76925,0.6825 -3.44365,-0.98967c-0.26903,-0.66705 0.2823,-1.62383 0.24755,-2.82249c-0.05237,-1.80616 -1.62125,-3.6322 -0.93306,-3.90976c1.14491,-0.46176 4.23194,2.78692 4.90635,4.4591z" fill="url(#color-4)"/><path d="M222.08465,183.60696c-0.04449,1.8025 -0.77392,2.71703 -2.00807,2.68657c-1.23415,-0.03046 -2.81273,-0.47238 -2.76825,-2.27488c0.01774,-0.71904 0.90347,-1.37849 1.3472,-2.49254c0.66862,-1.67866 -0.04688,-3.97734 0.69495,-3.95903c1.23415,0.03046 2.77865,4.23738 2.73417,6.03988z" fill="url(#color-5)"/><path d="M223.00985,177.95635c0.71973,0.18061 -0.58408,2.20446 -0.38841,4.00075c0.12985,1.19212 0.80712,2.0643 0.63205,2.76193c-0.43886,1.74882 -2.07813,1.75278 -3.27553,1.4523c-1.1974,-0.30048 -1.65588,-1.3767 -1.21702,-3.12552c0.43886,-1.74882 3.05152,-5.38994 4.24891,-5.08946z" data-paper-data="{&quot;index&quot;:null}" fill="url(#color-6)"/></g><path d="M214.58775,186.80995v-9.3077h1.76923v9.3077z" fill="url(#color-7)" stroke="none" stroke-width="0"/><path d="M224.35698,187.0407v-9.30769h1.76923v9.30769z" fill="url(#color-8)" stroke="none" stroke-width="0"/><path d="M219.23933,186.86423v-9.30769h1.76923v9.30769z" fill="url(#color-9)" stroke="none" stroke-width="0"/><g stroke="none" stroke-width="0"><path d="M240.86895,175.20033l-6.92362,8.28876l-14.70206,-18.07825z" data-paper-data="{&quot;index&quot;:null}" fill="url(#color-10)"/><path d="M243.5617,182.84505l6.46644,-8.65016l15.6558,17.2589z" data-paper-data="{&quot;index&quot;:null}" fill="url(#color-11)"/><path d="M228.10998,217.52414l2.25731,-16.64766l10.70207,1.45113z" fill="url(#color-12)"/><path d="M244.30998,201.92761l10.70207,-1.45113l2.25731,16.64766z" data-paper-data="{&quot;index&quot;:null}" fill="url(#color-13)"/><path d="M229.53967,204.60087l8.5,-41.25h9.5l8.5,41.25z" fill="url(#color-14)"/><path d="M258.41467,159.22587c0,9.25077 -7.21941,16.75 -16.125,16.75c-8.90559,0 -16.125,-7.49923 -16.125,-16.75c0,-9.25077 7.21941,-16.75 16.125,-16.75c8.90559,0 16.125,7.49923 16.125,16.75z" fill="url(#color-15)"/></g><path d="M216.2235,186.67251v-9.17647h8.05882v9.17647z" fill="url(#color-16)" stroke="none" stroke-width="0"/></g></g></svg>