<svg version="1.1" xmlns="http://www.w3.org/2000/svg" xmlns:xlink="http://www.w3.org/1999/xlink" width="35.50274" height="24.82225" viewBox="0,0,35.50274,24.82225"><defs><radialGradient cx="241.01534" cy="188.86752" r="16.89591" gradientUnits="userSpaceOnUse" id="color-1"><stop offset="0" stop-color="#e3bb00"/><stop offset="1" stop-color="#b09312"/></radialGradient><radialGradient cx="240.01986" cy="186.48787" r="3.90144" gradientUnits="userSpaceOnUse" id="color-2"><stop offset="0" stop-color="#e30000"/><stop offset="1" stop-color="#ab0000"/></radialGradient><radialGradient cx="250.11834" cy="187.25305" r="2.51968" gradientUnits="userSpaceOnUse" id="color-3"><stop offset="0" stop-color="#e30000"/><stop offset="1" stop-color="#ab0000"/></radialGradient><radialGradient cx="230.92503" cy="187.10171" r="2.51968" gradientUnits="userSpaceOnUse" id="color-4"><stop offset="0" stop-color="#e30000"/><stop offset="1" stop-color="#ab0000"/></radialGradient><radialGradient cx="224.83816" cy="186.54282" r="1.85467" gradientUnits="userSpaceOnUse" id="color-5"><stop offset="0" stop-color="#e30000"/><stop offset="1" stop-color="#ab0000"/></radialGradient><radialGradient cx="255.54737" cy="186.83483" r="1.85467" gradientUnits="userSpaceOnUse" id="color-6"><stop offset="0" stop-color="#e30000"/><stop offset="1" stop-color="#ab0000"/></radialGradient></defs><g transform="translate(-222.24863,-167.2364)"><g data-paper-data="{&quot;isPaintingLayer&quot;:true}" fill-rule="nonzero" stroke-linecap="butt" stroke-linejoin="miter" stroke-miterlimit="10" stroke-dasharray="" stroke-dashoffset="0" style="mix-blend-mode: normal"><path d="M257.25137,188.74281c0,3.85668 -34.50274,3.69639 -34.50274,-0.14128c0,-3.21849 2.43945,-9.94393 2.43945,-9.94393c0,0 1.87817,4.51872 2.9819,4.48403c1.02393,-0.03218 2.5641,-7.64292 2.5641,-7.64292c0,0 2.12433,7.42533 2.81489,7.31225c1.75517,0.33206 3.69213,-9.49281 6.21133,-14.36961c1.73611,4.37378 4.91301,15.02138 6.30825,14.82172c1.13731,0.08979 4.08912,-8.07597 4.08912,-8.07597c0,0 1.81158,7.62127 2.92343,7.70258c1.16952,0.08553 2.55083,-4.50368 2.55083,-4.50368c0,0 1.61944,7.78719 1.61944,10.35681z" fill="url(#color-1)" stroke="#ab9100" stroke-width="1"/><path d="M242.14793,186.48787c0,2.15471 -0.95276,3.90144 -2.12806,3.90144c-1.1753,0 -2.12805,-1.74673 -2.12805,-3.90144c0,-2.15471 0.95276,-3.90144 2.12805,-3.90144c1.1753,0 2.12806,1.74673 2.12806,3.90144z" fill="url(#color-2)" stroke="none" stroke-width="0"/><path d="M251.49271,187.25305c0,1.39158 -0.61533,2.51968 -1.37437,2.51968c-0.75904,0 -1.37437,-1.1281 -1.37437,-2.51968c0,-1.39158 0.61532,-2.51968 1.37437,-2.51968c0.75904,0 1.37437,1.1281 1.37437,2.51968z" fill="url(#color-3)" stroke="none" stroke-width="0"/><path d="M232.2994,187.10171c0,1.39158 -0.61533,2.51968 -1.37437,2.51968c-0.75904,0 -1.37437,-1.1281 -1.37437,-2.51968c0,-1.39158 0.61532,-2.51968 1.37437,-2.51968c0.75904,0 1.37437,1.1281 1.37437,2.51968z" fill="url(#color-4)" stroke="none" stroke-width="0"/><path d="M225.8498,186.54282c0,1.0243 -0.45293,1.85466 -1.01164,1.85466c-0.55871,0 -1.01163,-0.83036 -1.01163,-1.85466c0,-1.0243 0.45292,-1.85467 1.01163,-1.85467c0.55871,0 1.01164,0.83037 1.01164,1.85467z" fill="url(#color-5)" stroke="none" stroke-width="0"/><path d="M256.55901,186.83483c0,1.0243 -0.45293,1.85466 -1.01164,1.85466c-0.5587,0 -1.01164,-0.83036 -1.01164,-1.85466c0,-1.0243 0.45292,-1.85467 1.01164,-1.85467c0.5587,0 1.01164,0.83037 1.01164,1.85467z" fill="url(#color-6)" stroke="none" stroke-width="0"/></g></g></svg>