<svg version="1.1" xmlns="http://www.w3.org/2000/svg" xmlns:xlink="http://www.w3.org/1999/xlink" width="83.46226" height="39.01179" viewBox="0,0,83.46226,39.01179"><defs><linearGradient x1="267.20347" y1="162.06476" x2="267.20347" y2="185.05252" gradientUnits="userSpaceOnUse" id="color-1"><stop offset="0" stop-color="#00ffff"/><stop offset="1" stop-color="#00c1bb"/></linearGradient><linearGradient x1="271.87316" y1="163.53145" x2="271.87316" y2="172.2506" gradientUnits="userSpaceOnUse" id="color-2"><stop offset="0" stop-color="#00ffff"/><stop offset="1" stop-color="#00c1bb"/></linearGradient><linearGradient x1="271.78613" y1="162.79762" x2="271.78613" y2="172.49111" gradientUnits="userSpaceOnUse" id="color-3"><stop offset="0" stop-color="#00ffff"/><stop offset="1" stop-color="#00c1bb"/></linearGradient><linearGradient x1="271.44711" y1="165.7781" x2="271.44711" y2="173.53802" gradientUnits="userSpaceOnUse" id="color-4"><stop offset="0" stop-color="#00ffff"/><stop offset="1" stop-color="#00c1bb"/></linearGradient><linearGradient x1="271.36631" y1="165.08371" x2="271.36631" y2="173.77793" gradientUnits="userSpaceOnUse" id="color-5"><stop offset="0" stop-color="#00ffff"/><stop offset="1" stop-color="#00c1bb"/></linearGradient><linearGradient x1="269.6023" y1="169.65779" x2="269.6023" y2="175.29784" gradientUnits="userSpaceOnUse" id="color-6"><stop offset="0" stop-color="#00ffff"/><stop offset="1" stop-color="#00c1bb"/></linearGradient><linearGradient x1="269.78185" y1="169.01534" x2="269.78185" y2="175.53792" gradientUnits="userSpaceOnUse" id="color-7"><stop offset="0" stop-color="#00ffff"/><stop offset="1" stop-color="#00c1bb"/></linearGradient><linearGradient x1="266.482" y1="173.44652" x2="266.482" y2="177.33391" gradientUnits="userSpaceOnUse" id="color-8"><stop offset="0" stop-color="#00ffff"/><stop offset="1" stop-color="#00c1bb"/></linearGradient><linearGradient x1="266.57097" y1="173.20663" x2="266.57097" y2="177.57397" gradientUnits="userSpaceOnUse" id="color-9"><stop offset="0" stop-color="#00ffff"/><stop offset="1" stop-color="#00c1bb"/></linearGradient><linearGradient x1="262.59388" y1="174.22232" x2="262.59388" y2="179.76261" gradientUnits="userSpaceOnUse" id="color-10"><stop offset="0" stop-color="#00ffff"/><stop offset="1" stop-color="#00c1bb"/></linearGradient><linearGradient x1="262.62878" y1="173.98182" x2="262.62878" y2="180.00333" gradientUnits="userSpaceOnUse" id="color-11"><stop offset="0" stop-color="#00ffff"/><stop offset="1" stop-color="#00c1bb"/></linearGradient><linearGradient x1="261.0727" y1="175.46727" x2="261.0727" y2="182.00748" gradientUnits="userSpaceOnUse" id="color-12"><stop offset="0" stop-color="#00ffff"/><stop offset="1" stop-color="#00c1bb"/></linearGradient><linearGradient x1="261.09291" y1="175.22633" x2="261.09291" y2="182.24805" gradientUnits="userSpaceOnUse" id="color-13"><stop offset="0" stop-color="#00ffff"/><stop offset="1" stop-color="#00c1bb"/></linearGradient><linearGradient x1="258.16508" y1="175.8271" x2="258.16508" y2="183.51815" gradientUnits="userSpaceOnUse" id="color-14"><stop offset="0" stop-color="#00ffff"/><stop offset="1" stop-color="#00c1bb"/></linearGradient><linearGradient x1="258.16612" y1="175.58699" x2="258.16612" y2="183.75896" gradientUnits="userSpaceOnUse" id="color-15"><stop offset="0" stop-color="#00ffff"/><stop offset="1" stop-color="#00c1bb"/></linearGradient><linearGradient x1="254.90398" y1="177.61082" x2="254.90398" y2="184.57223" gradientUnits="userSpaceOnUse" id="color-16"><stop offset="0" stop-color="#00ffff"/><stop offset="1" stop-color="#00c1bb"/></linearGradient><linearGradient x1="254.89699" y1="177.37008" x2="254.89699" y2="184.81208" gradientUnits="userSpaceOnUse" id="color-17"><stop offset="0" stop-color="#00ffff"/><stop offset="1" stop-color="#00c1bb"/></linearGradient><linearGradient x1="265.34206" y1="162.09457" x2="265.34206" y2="180.10534" gradientUnits="userSpaceOnUse" id="color-18"><stop offset="0" stop-color="#00ffff"/><stop offset="1" stop-color="#00c1bb"/></linearGradient><linearGradient x1="265.39384" y1="161.71372" x2="265.39384" y2="180.22549" gradientUnits="userSpaceOnUse" id="color-19"><stop offset="0" stop-color="#00ffff"/><stop offset="1" stop-color="#00c1bb"/></linearGradient><linearGradient x1="212.79654" y1="161.34517" x2="212.79654" y2="184.33292" gradientUnits="userSpaceOnUse" id="color-20"><stop offset="0" stop-color="#00ffff"/><stop offset="1" stop-color="#00c1bb"/></linearGradient><linearGradient x1="208.12684" y1="162.81185" x2="208.12684" y2="171.531" gradientUnits="userSpaceOnUse" id="color-21"><stop offset="0" stop-color="#00ffff"/><stop offset="1" stop-color="#00c1bb"/></linearGradient><linearGradient x1="208.21387" y1="162.07801" x2="208.21387" y2="171.7715" gradientUnits="userSpaceOnUse" id="color-22"><stop offset="0" stop-color="#00ffff"/><stop offset="1" stop-color="#00c1bb"/></linearGradient><linearGradient x1="208.55289" y1="165.05849" x2="208.55289" y2="172.81842" gradientUnits="userSpaceOnUse" id="color-23"><stop offset="0" stop-color="#00ffff"/><stop offset="1" stop-color="#00c1bb"/></linearGradient><linearGradient x1="208.63369" y1="164.36409" x2="208.63369" y2="173.05831" gradientUnits="userSpaceOnUse" id="color-24"><stop offset="0" stop-color="#00ffff"/><stop offset="1" stop-color="#00c1bb"/></linearGradient><linearGradient x1="210.3977" y1="168.93819" x2="210.3977" y2="174.57825" gradientUnits="userSpaceOnUse" id="color-25"><stop offset="0" stop-color="#00ffff"/><stop offset="1" stop-color="#00c1bb"/></linearGradient><linearGradient x1="210.21815" y1="168.29575" x2="210.21815" y2="174.81831" gradientUnits="userSpaceOnUse" id="color-26"><stop offset="0" stop-color="#00ffff"/><stop offset="1" stop-color="#00c1bb"/></linearGradient><linearGradient x1="213.518" y1="172.72692" x2="213.518" y2="176.61431" gradientUnits="userSpaceOnUse" id="color-27"><stop offset="0" stop-color="#00ffff"/><stop offset="1" stop-color="#00c1bb"/></linearGradient><linearGradient x1="213.42904" y1="172.48703" x2="213.42904" y2="176.85436" gradientUnits="userSpaceOnUse" id="color-28"><stop offset="0" stop-color="#00ffff"/><stop offset="1" stop-color="#00c1bb"/></linearGradient><linearGradient x1="217.40613" y1="173.50271" x2="217.40613" y2="179.043" gradientUnits="userSpaceOnUse" id="color-29"><stop offset="0" stop-color="#00ffff"/><stop offset="1" stop-color="#00c1bb"/></linearGradient><linearGradient x1="217.37122" y1="173.2622" x2="217.37122" y2="179.28373" gradientUnits="userSpaceOnUse" id="color-30"><stop offset="0" stop-color="#00ffff"/><stop offset="1" stop-color="#00c1bb"/></linearGradient><linearGradient x1="218.92731" y1="174.74766" x2="218.92731" y2="181.28788" gradientUnits="userSpaceOnUse" id="color-31"><stop offset="0" stop-color="#00ffff"/><stop offset="1" stop-color="#00c1bb"/></linearGradient><linearGradient x1="218.90709" y1="174.50673" x2="218.90709" y2="181.52846" gradientUnits="userSpaceOnUse" id="color-32"><stop offset="0" stop-color="#00ffff"/><stop offset="1" stop-color="#00c1bb"/></linearGradient><linearGradient x1="221.83492" y1="175.1075" x2="221.83492" y2="182.79855" gradientUnits="userSpaceOnUse" id="color-33"><stop offset="0" stop-color="#00ffff"/><stop offset="1" stop-color="#00c1bb"/></linearGradient><linearGradient x1="221.83388" y1="174.86739" x2="221.83388" y2="183.03936" gradientUnits="userSpaceOnUse" id="color-34"><stop offset="0" stop-color="#00ffff"/><stop offset="1" stop-color="#00c1bb"/></linearGradient><linearGradient x1="225.09602" y1="176.89122" x2="225.09602" y2="183.85262" gradientUnits="userSpaceOnUse" id="color-35"><stop offset="0" stop-color="#00ffff"/><stop offset="1" stop-color="#00c1bb"/></linearGradient><linearGradient x1="225.10301" y1="176.65047" x2="225.10301" y2="184.09249" gradientUnits="userSpaceOnUse" id="color-36"><stop offset="0" stop-color="#00ffff"/><stop offset="1" stop-color="#00c1bb"/></linearGradient><linearGradient x1="214.65794" y1="161.37496" x2="214.65794" y2="179.38574" gradientUnits="userSpaceOnUse" id="color-37"><stop offset="0" stop-color="#00ffff"/><stop offset="1" stop-color="#00c1bb"/></linearGradient><linearGradient x1="214.60617" y1="160.99411" x2="214.60617" y2="179.50589" gradientUnits="userSpaceOnUse" id="color-38"><stop offset="0" stop-color="#00ffff"/><stop offset="1" stop-color="#00c1bb"/></linearGradient><radialGradient cx="240.10198" cy="179.7656" r="16.89591" gradientUnits="userSpaceOnUse" id="color-39"><stop offset="0" stop-color="#e2e2e2"/><stop offset="1" stop-color="#acacac"/></radialGradient><radialGradient cx="239.92025" cy="180.08141" r="12.63368" gradientUnits="userSpaceOnUse" id="color-40"><stop offset="0" stop-color="#00b4c8"/><stop offset="1" stop-color="#007182"/></radialGradient></defs><g transform="translate(-198.26887,-160.9941)"><g data-paper-data="{&quot;isPaintingLayer&quot;:true}" fill-rule="nonzero" stroke-linecap="butt" stroke-linejoin="miter" stroke-miterlimit="10" stroke-dasharray="" stroke-dashoffset="0" style="mix-blend-mode: normal"><g data-paper-data="{&quot;index&quot;:null}" stroke="none" stroke-width="2.6533"><g><path d="M254.251,185.05252c-0.14713,0 -0.28465,-0.0125 -0.41064,-0.03846c-0.89538,-0.17602 -1.27722,-1.93793 -1.13585,-5.23771c0.53091,-2.45822 1.88214,-2.64675 2.28416,-2.64675c0.0356,0 0.07021,0.0029 0.10389,0.00674c0.13752,-0.39622 0.352,-0.7492 0.61838,-1.01178c0.35008,-0.34717 0.75209,-0.55589 1.0743,-0.6684c-0.10773,-0.12024 -0.16061,-0.25583 -0.15677,-0.40586c0.0096,-0.55397 0.64535,-0.85018 2.50441,-1.15314c0.21063,-0.33565 0.68475,-0.56648 1.4426,-0.704c0.13368,-0.02403 0.28951,-0.04904 0.45973,-0.07311c0.0096,-0.02885 0.02019,-0.05673 0.03462,-0.0846l-0.21448,-0.05771l0.62418,-0.33279c0.08464,-0.05387 0.20103,-0.11541 0.33471,-0.17311l0.81365,-0.42414l-0.3549,-0.10192l4.55198,-2.90066c8.82885,-1.94271 13.05384,-5.81089 13.09614,-5.85032l1.2041,-1.13005l-0.3135,1.55418c-0.02215,0.11255 -0.24815,1.00217 -2.00527,2.71982c1.0589,-0.55781 1.56382,-0.92808 1.57056,-0.93384l1.35413,-1.01561l-0.52221,1.53207c-0.05677,0.16637 -0.49819,0.84826 -3.6412,3.22859l1.34645,-0.77707l-0.76844,1.49071c-0.0577,0.11251 -1.35318,2.58422 -4.75874,4.34135l0.92329,-0.01058l-0.4097,0.71744c-1.21951,2.1274 -4.24134,2.6977 -5.90803,2.84777c0.29429,0.3462 0.46259,0.58087 0.48568,0.6136l0.22216,0.31448l-0.27701,0.2741c-0.85402,0.84921 -2.33415,1.15024 -3.55655,1.24448c0.11831,0.21063 0.19139,0.35008 0.20679,0.38183l0.12117,0.23851l-0.15771,0.22314c-0.9454,1.33876 -2.83331,1.45994 -3.69024,1.43685c-0.0058,0.0154 -0.01348,0.03078 -0.02022,0.0452c-0.21349,0.43856 -0.67609,0.59435 -1.16561,0.75884c-0.25681,0.08656 -0.53762,0.18175 -0.81462,0.32217c-0.70592,0.35776 -1.59745,0.46839 -2.46979,0.32314c-0.48662,0.5838 -1.70805,1.1166 -2.62558,1.1166zM254.9858,177.6105c-0.30009,0 -1.31665,0.16061 -1.76579,2.22356c-0.12984,3.118 0.26928,4.62121 0.72611,4.71067c0.81556,0.16539 2.27938,-0.4905 2.57845,-0.99158l0.0962,-0.15963l0.19233,0.04038c0.79636,0.16544 1.63595,0.08463 2.27742,-0.24141c0.31162,-0.15869 0.61359,-0.26062 0.88002,-0.35008c0.47031,-0.15869 0.75883,-0.26544 0.87519,-0.50587c0.01925,-0.03846 0.03269,-0.08365 0.0423,-0.13752l0.03849,-0.21545l0.23753,0.01349c0.67902,0.03653 2.5525,0.03752 3.43252,-1.20892c-0.02407,-0.04905 -0.16061,-0.3097 -0.38183,-0.68381l-0.19907,-0.33663l0.41739,-0.01827c0.97042,-0.04328 2.72946,-0.24525 3.60465,-1.11562v0c-0.00964,-0.0154 -0.28661,-0.40104 -0.76268,-0.92616l-0.33083,-0.36548l0.5174,-0.02787c1.38588,-0.07503 4.74529,-0.4809 5.97248,-2.6275l0.00192,-0.00192l-0.40488,0.00478c0,0 -0.00098,0 -0.00192,0c-0.17794,0 -0.43953,-0.00286 -0.73093,-0.00768l-0.1058,-0.45875c3.96336,-1.67347 5.41753,-4.44617 5.47814,-4.56448c-0.27795,0.15967 -1.09642,0.54531 -2.12356,0.97426l-0.27026,-0.40778c4.80683,-3.47576 5.37715,-4.34805 5.43003,-4.4452c-0.05382,0.03943 -1.08484,0.78574 -3.24109,1.75231l-0.29332,-0.39336c2.84966,-2.40248 3.12086,-3.59501 3.12278,-3.60657v-0.00095v0c-0.0423,0.03943 -4.33653,3.99896 -13.26059,5.94649l-3.5854,2.30146l0.48857,0.13948l-1.8841,0.98096c-0.12404,0.05484 -0.21636,0.10291 -0.29908,0.15485l-0.06735,0.04234c-0.12694,0.0904 -0.14905,0.1481 -0.15289,0.1683l0.0298,0.23274l-0.25102,0.07116c-0.2414,0.03176 -0.46164,0.06445 -0.6386,0.0962c-0.64052,0.11541 -1.02714,0.29907 -1.11852,0.5299l-0.05191,0.13082l-0.15006,0.02403c-1.45896,0.23083 -2.20047,0.46933 -2.20431,0.70882c-0.0029,0.10675 0.17311,0.226 0.48278,0.32797l0.34623,0.11443l-0.40202,0.51453l-0.2808,-0.14234c-0.14619,-0.04712 -0.72999,0.10772 -1.20411,0.57803c-0.14814,0.14713 -0.41836,0.47604 -0.56361,1.03099l-0.06347,0.24333l-0.2616,-0.06829c-0.12117,-0.03269 -0.17312,-0.04712 -0.21734,-0.04712z" fill="url(#color-1)"/><g><path d="M263.45112,171.77939l3.67197,-2.33897c8.95005,-1.93503 13.17211,-5.90897 13.17211,-5.90897c0,0 -0.5001,2.47649 -8.84616,7.66034c-3.17186,1.96965 -7.99697,0.58761 -7.99791,0.58761z" fill="url(#color-2)"/><path d="M267.09808,172.49111c-0.00098,0 0,0 -0.00192,0c-2.0168,0 -3.65464,-0.46165 -3.72293,-0.48184l-0.51167,-0.14619l4.11244,-2.61981c8.85005,-1.93025 13.09229,-5.84072 13.13463,-5.88016l0.60207,-0.56549l-0.15775,0.77804c-0.02019,0.10483 -0.61551,2.63424 -8.95676,7.81519c-1.17623,0.72998 -2.69002,1.10026 -4.49811,1.10026zM264.06566,171.67844c0.63477,0.1356 1.76481,0.33177 3.03144,0.33177c1.70326,0 3.118,-0.34235 4.20574,-1.01754c5.02515,-3.12278 7.17756,-5.25594 8.08639,-6.42926c-1.79943,1.29545 -5.83107,3.73351 -12.20558,5.11167l-3.118,2.00335z" fill="url(#color-3)"/></g><g><path d="M262.18449,172.8306l3.88837,-2.02351c10.24648,-1.72251 14.63687,-5.02899 14.63687,-5.02899c0,0 -0.32797,0.96175 -8.66054,6.72646c-3.05837,2.11681 -9.86567,0.32605 -9.86469,0.32605z" fill="url(#color-4)"/><path d="M267.63088,173.77793c0,0 0,0 -0.00094,0c-2.76216,0 -5.40699,-0.68765 -5.51855,-0.7165l-0.59917,-0.15771l4.43081,-2.30533c10.12723,-1.71769 14.55607,-4.97419 14.60033,-5.00689l0.67706,-0.50779l-0.26159,0.7646c-0.0356,0.10577 -0.58764,1.19834 -8.75193,6.84764c-1.03679,0.71846 -2.57654,1.08198 -4.57601,1.08198zM262.87696,172.74404c0.94733,0.20487 2.84389,0.55303 4.75392,0.55397v0c1.88313,0 3.31612,-0.33084 4.26055,-0.98485c3.78162,-2.61594 5.90133,-4.23648 7.0881,-5.21846c-2.18318,1.13009 -6.32734,2.85064 -12.86053,3.94897l-3.24204,1.70036z" fill="url(#color-5)"/></g><g><path d="M263.25397,172.54305c-0.02117,0.02019 4.2163,-0.32122 6.33503,-0.22024c2.11873,0.10099 7.31798,-2.22454 8.08255,-2.66502c0,0 -1.90042,3.68639 -7.20928,5.16938c-5.30886,1.48302 -8.12582,-0.97617 -8.80289,-1.38008c-0.67804,-0.40394 1.59459,-0.90405 1.59459,-0.90405z" fill="url(#color-6)"/><path d="M267.2231,175.53792c-2.92371,0 -4.70394,-1.21179 -5.46563,-1.73114c-0.10001,-0.06731 -0.17982,-0.12215 -0.24043,-0.15963c-0.25101,-0.14909 -0.25776,-0.32988 -0.24043,-0.42511c0.07981,-0.42511 1.08677,-0.73191 1.91578,-0.91463l0.21832,-0.0481l0.0154,0.03367c0.08366,-0.00482 0.1962,-0.0125 0.33275,-0.02116c1.16086,-0.07405 4.17399,-0.2683 5.84362,-0.19041l0.12502,0.00286c2.11394,0 7.06214,-2.20239 7.80558,-2.63036l0.75978,-0.43856l-0.38375,0.74535c-0.07887,0.15387 -2.01199,3.79989 -7.36894,5.29636c-1.14349,0.31931 -2.25915,0.48086 -3.31707,0.48086zM261.84692,173.273c0.07116,0.0452 0.14137,0.09331 0.2231,0.15101c0.7194,0.48952 2.40247,1.63497 5.15307,1.63497c1.00695,0 2.07066,-0.15579 3.16319,-0.46067c3.69792,-1.03294 5.71955,-3.18052 6.56491,-4.31057c-1.74172,0.80306 -5.39636,2.27935 -7.2237,2.27935l-0.15101,-0.00385c-1.65226,-0.0779 -4.63081,0.11542 -5.78105,0.19041c-0.26257,0.01635 -0.44338,0.02791 -0.51167,0.03077c-0.6232,0.13948 -1.23296,0.34913 -1.43685,0.48857z" fill="url(#color-7)"/></g><g><path d="M259.64834,174.56655c0,0 -0.6328,-0.60207 1.02718,-0.90213c1.65999,-0.30104 4.19418,-0.38084 6.1167,0.36067c1.92256,0.74151 6.64186,0.6617 6.64186,0.6617c-1.61572,2.82563 -6.79381,2.64479 -6.79381,2.64479c-2.33705,-0.10001 -6.99194,-2.76503 -6.99194,-2.76503z" fill="url(#color-8)"/><path d="M266.82688,177.57397v0l-0.19527,-0.0029c-2.38127,-0.10193 -6.92749,-2.69097 -7.11982,-2.8016c-0.0779,-0.06347 -0.32506,-0.31064 -0.21447,-0.63473c0.11443,-0.33373 0.55013,-0.56553 1.32912,-0.70592c0.55977,-0.10099 1.459,-0.22219 2.55925,-0.22219c1.41375,0 2.69673,0.20679 3.70944,0.59725c1.55037,0.59823 5.0867,0.64437 6.13309,0.64437l0.84442,-0.0096l-0.20581,0.35968c-1.5109,2.64099 -5.9619,2.77564 -6.83995,2.77564zM259.8378,174.39919c0.01442,0 4.57601,2.59672 6.81595,2.691l0.17406,0.00192v0c0.78189,0 4.57985,-0.10965 6.14077,-2.16397c-1.40897,-0.00094 -4.702,-0.075 -6.27638,-0.68185c-0.94831,-0.36646 -2.16107,-0.55976 -3.50653,-0.55976c-1.05795,0 -1.92064,0.11638 -2.45728,0.21353c-0.83097,0.15097 -0.92231,0.35679 -0.93098,0.37893c-0.01924,0.05387 0.03944,0.1202 0.04038,0.1202v0z" fill="url(#color-9)"/></g><g><path d="M258.16437,175.52062c0,0 -3.12474,-0.55397 1.59459,-1.23492c4.71836,-0.6809 8.27875,4.34809 8.27875,4.34809c-1.28877,1.28297 -4.45581,1.12236 -4.45581,1.12236z" fill="url(#color-10)"/><path d="M263.92237,180.00333v0c-0.22314,0 -0.35489,-0.00769 -0.35489,-0.00769l-0.0875,-0.00384l-5.43388,-4.24809c-0.54629,-0.10385 -1.1647,-0.30582 -1.15702,-0.68957c0.0058,-0.36929 0.48281,-0.66648 2.82946,-1.00597c0.30487,-0.04426 0.6165,-0.06637 0.92428,-0.06637c4.3644,0 7.48432,4.33653 7.61513,4.52117l0.11059,0.15677l-0.1385,0.13755c-1.09351,1.08771 -3.3767,1.20603 -4.30768,1.20603zM263.68289,179.5186c0.05578,0.00192 0.13753,0.00384 0.24141,0.0029v0c0.63955,0 2.72946,-0.06923 3.77389,-0.91753c-0.65398,-0.84054 -3.86912,-4.66254 -7.89692,-4.0807c-1.65422,0.23851 -2.17451,0.44338 -2.33415,0.5357c0.14136,0.07695 0.452,0.17312 0.74727,0.22506l0.1202,0.05289z" fill="url(#color-11)"/></g><g><path d="M258.6664,175.46769c3.27669,0.05963 5.93112,5.31945 5.93112,5.31945c-1.08101,1.53304 -3.70659,1.18681 -3.70659,1.18681c-0.59435,-0.52609 -5.50122,-6.56589 -2.22454,-6.50626z" fill="url(#color-12)"/><path d="M261.52762,182.24805c-0.40586,0 -0.67322,-0.0356 -0.67322,-0.0356l-0.14524,-0.06539c-0.27504,-0.24427 -4.05952,-4.62505 -3.32573,-6.2908c0.12698,-0.28759 0.44436,-0.62994 1.23586,-0.62994c3.45462,0.06347 6.10616,5.2396 6.21675,5.45983l0.06061,0.12023l-0.07888,0.11157c-0.81556,1.15698 -2.4111,1.3301 -3.29014,1.3301zM261.01403,181.74506c0.42029,0.03846 2.35245,0.15967 3.28053,-0.97904c-0.42029,-0.78095 -2.82755,-5.00688 -5.63295,-5.05785c-0.00098,0 -0.00098,0 -0.00192,0c-0.58282,0 -0.72807,0.18849 -0.79154,0.32891c-0.5328,1.21085 2.4823,5.04629 3.14588,5.70798z" fill="url(#color-13)"/></g><g><path d="M255.44165,178.43281c-0.17696,-2.11489 1.65325,-2.63522 1.88215,-2.60444c0.2289,0.03078 2.81794,4.26827 3.40751,5.62048c0.58952,1.35221 -0.45879,1.14161 -1.63886,1.7427c-1.18007,0.60109 -2.50244,0.18849 -2.50244,0.18849c0,0 -0.97139,-2.83233 -1.14835,-4.94722z" fill="url(#color-14)"/><path d="M257.63444,183.75896v0c-0.63665,0 -1.10889,-0.14426 -1.12813,-0.15097l-0.12694,-0.03943l-0.03846,-0.11639c-0.04136,-0.11635 -0.98292,-2.88334 -1.15988,-5.00109c-0.0933,-1.10602 0.34043,-1.78696 0.72034,-2.16299c0.52993,-0.52414 1.18296,-0.7011 1.40128,-0.7011c0.57031,0.07018 3.38438,5.10976 3.67291,5.7724c0.20774,0.47608 0.24141,0.80788 0.11251,1.0743c-0.16829,0.34526 -0.56259,0.47701 -1.01847,0.63089c-0.25869,0.08754 -0.55303,0.1866 -0.85019,0.33757c-0.46454,0.23663 -0.99734,0.35682 -1.58498,0.35682zM256.79868,183.1848c0.16159,0.03653 0.46933,0.0933 0.83384,0.0933v0c0.49724,0 0.9454,-0.09906 1.33107,-0.29621c0.33181,-0.16834 0.64629,-0.2741 0.92231,-0.3674c0.35969,-0.12117 0.64245,-0.2164 0.72035,-0.37603c0.06543,-0.13274 0.02501,-0.36838 -0.1202,-0.70015c-0.57803,-1.32817 -2.80736,-4.94436 -3.25842,-5.46276c-0.16637,0.03657 -0.59533,0.18852 -0.95599,0.55204c-0.44048,0.44432 -0.63186,1.04545 -0.56934,1.78692c0.15195,1.81581 0.90981,4.2048 1.09637,4.7703z" fill="url(#color-15)"/></g><g><path d="M255.5542,177.84227c0.36062,0.45106 1.21276,5.16942 1.01558,5.65032c-0.19715,0.48086 -1.70323,1.23295 -2.6217,1.05215c-0.91847,-0.18084 -0.72132,-4.74913 -0.72132,-4.74913c0.52414,-2.40439 1.96678,-2.4044 2.32744,-1.95334z" fill="url(#color-16)"/><path d="M254.251,184.81208v0c-0.12694,0 -0.24717,-0.01058 -0.35776,-0.03269c-1.02232,-0.20103 -0.98869,-3.55946 -0.92808,-4.99344c0.48666,-2.24375 1.66959,-2.41589 2.02159,-2.41589c0.3222,0 0.61457,0.12404 0.77805,0.32985c0.42797,0.53378 1.28105,5.31274 1.05023,5.87725c-0.23658,0.57706 -1.60228,1.23491 -2.56403,1.23491zM254.9858,177.85093c-0.51551,0 -1.18105,0.52417 -1.50129,1.99179c-0.10196,2.46206 0.18755,4.40191 0.51932,4.46636c0.07311,0.0154 0.15677,0.02211 0.24717,0.02211c0.8752,0 1.95428,-0.63473 2.07259,-0.92326c0.1481,-0.46263 -0.67612,-5.02707 -0.981,-5.42427c-0.04998,-0.06061 -0.17312,-0.13274 -0.35678,-0.13274z" fill="url(#color-17)"/></g></g><g><path d="M258.82991,171.53222c2.12931,-0.66072 6.94674,-2.64479 11.86126,-4.20763c4.9155,-1.56382 8.74906,-5.23002 8.74906,-5.23002c-0.94928,3.63641 -10.22342,8.1143 -13.20484,9.16645c-2.98239,1.05215 -11.30537,7.30356 -12.16327,8.42976c-0.85787,1.1262 -2.22164,-0.16543 -2.74577,-2.38899c-0.52418,-2.22454 1.62247,-4.60487 1.62247,-4.60487c0,0 3.75178,-0.50492 5.8811,-1.1647z" fill="url(#color-18)"/><path d="M253.34793,180.22549c-0.85692,0 -1.73596,-1.1916 -2.13892,-2.89584c-0.53283,-2.25915 1.56092,-4.61255 1.72345,-4.75105c0.03748,-0.00478 3.76621,-0.51163 5.86185,-1.16176c0.8752,-0.27124 2.23991,-0.78001 3.81914,-1.36859c2.29569,-0.85594 5.15209,-1.91966 8.04213,-2.83908c4.83184,-1.53591 8.66442,-5.16558 8.70288,-5.20211l0.3068,-0.29335l-0.10769,0.41068c-0.99832,3.82298 -10.64274,8.31819 -13.28082,9.25011c-2.92854,1.03294 -11.19478,7.19007 -12.10749,8.38934c-0.23082,0.30202 -0.51452,0.46165 -0.82133,0.46165zM279.17189,162.49756c-1.0618,0.93 -4.40674,3.65657 -8.44227,4.93954c-2.88526,0.91753 -5.73875,1.9812 -8.03154,2.83523c-1.58307,0.58956 -2.9497,1.09928 -3.83164,1.37244c-2.10913,0.65496 -5.86378,1.17238 -5.82821,1.13197c-0.02886,0.03176 -2.09756,2.36398 -1.59456,4.4962c0.48184,2.04275 1.7725,3.344 2.53326,2.34379c0.92232,-1.21085 9.26547,-7.42857 12.21902,-8.47014c3.23149,-1.14063 11.50158,-5.27425 12.97594,-8.64902z" fill="url(#color-19)"/></g></g><g stroke="none" stroke-width="2.6533"><g><path d="M225.749,184.33292c-0.91753,0 -2.13896,-0.5328 -2.62558,-1.1166c-0.87233,0.14524 -1.76387,0.03462 -2.46979,-0.32315c-0.277,-0.14042 -0.55781,-0.23561 -0.81462,-0.32217c-0.48952,-0.16449 -0.95211,-0.32028 -1.16561,-0.75884c-0.00674,-0.01443 -0.01443,-0.0298 -0.02023,-0.0452c-0.85692,0.02309 -2.74483,-0.09809 -3.69024,-1.43685l-0.15771,-0.22314l0.12117,-0.23851c0.01541,-0.03175 0.08848,-0.1712 0.20679,-0.38183c-1.22241,-0.09424 -2.70253,-0.39528 -3.55656,-1.24448l-0.277,-0.2741l0.22216,-0.31448c0.02309,-0.03273 0.19139,-0.2674 0.48568,-0.6136c-1.66669,-0.15006 -4.68852,-0.72038 -5.90803,-2.84777l-0.4097,-0.71744l0.92329,0.01058c-3.40555,-1.75713 -4.70103,-4.22883 -4.75874,-4.34135l-0.76844,-1.49071l1.34644,0.77707c-3.14301,-2.38033 -3.58443,-3.06221 -3.64119,-3.22859l-0.52222,-1.53207l1.35413,1.01561c0.00674,0.00576 0.51167,0.37603 1.57056,0.93384c-1.75713,-1.71765 -1.98313,-2.60727 -2.00528,-2.71982l-0.3135,-1.55418l1.2041,1.13005c0.0423,0.03944 4.26729,3.90761 13.09614,5.85032l4.55198,2.90066l-0.3549,0.10193l0.81364,0.42413c0.13368,0.05771 0.25007,0.11925 0.33471,0.17312l0.62418,0.33279l-0.21448,0.05771c0.01443,0.02787 0.02501,0.05575 0.03462,0.0846c0.17022,0.02407 0.32605,0.04908 0.45973,0.07311c0.75786,0.13752 1.23198,0.36835 1.44261,0.704c1.85905,0.30296 2.4948,0.59917 2.5044,1.15314c0.00384,0.15003 -0.04904,0.28563 -0.15677,0.40586c0.3222,0.11251 0.72422,0.32122 1.0743,0.6684c0.26638,0.26258 0.48086,0.61555 0.61838,1.01177c0.03367,-0.00384 0.06829,-0.00674 0.10388,-0.00674c0.40202,0 1.75325,0.18852 2.28416,2.64675c0.14136,3.29978 -0.24047,5.06169 -1.13585,5.23771c-0.126,0.02595 -0.26352,0.03846 -0.41065,0.03846zM225.0142,176.8909c-0.04422,0 -0.09616,0.01443 -0.21734,0.04712l-0.2616,0.06829l-0.06347,-0.24333c-0.14524,-0.55495 -0.41547,-0.88386 -0.56361,-1.03098c-0.47412,-0.47031 -1.05792,-0.62516 -1.2041,-0.57804l-0.28081,0.14234l-0.40202,-0.51453l0.34623,-0.11443c0.30966,-0.10196 0.48568,-0.22122 0.48278,-0.32797c-0.00384,-0.23949 -0.74535,-0.47799 -2.20431,-0.70882l-0.15006,-0.02403l-0.05191,-0.13082c-0.09138,-0.23082 -0.47799,-0.41449 -1.11852,-0.5299c-0.17696,-0.03175 -0.3972,-0.06445 -0.63861,-0.0962l-0.25101,-0.07115l0.0298,-0.23274c-0.00384,-0.02019 -0.02595,-0.0779 -0.15289,-0.1683l-0.06735,-0.04234c-0.08272,-0.05194 -0.17504,-0.10001 -0.29908,-0.15485l-1.8841,-0.98096l0.48858,-0.13948l-3.58541,-2.30145c-8.92406,-1.94753 -13.21829,-5.90705 -13.26059,-5.94649v0v0.00094c0.00192,0.01156 0.27312,1.2041 3.12278,3.60658l-0.29331,0.39336c-2.15625,-0.96657 -3.18727,-1.71287 -3.24109,-1.75231c0.05288,0.09714 0.6232,0.96944 5.43004,4.4452l-0.27026,0.40778c-1.02714,-0.42895 -1.84561,-0.81459 -2.12355,-0.97426c0.06061,0.11831 1.51478,2.89102 5.47814,4.56449l-0.10581,0.45875c-0.29139,0.00482 -0.55299,0.00768 -0.73093,0.00768c-0.00094,0 -0.00192,0 -0.00192,0l-0.40488,-0.00478l0.00192,0.00192c1.22719,2.14661 4.5866,2.55247 5.97248,2.6275l0.51739,0.02787l-0.33083,0.36548c-0.47607,0.52512 -0.75304,0.91075 -0.76268,0.92616v0c0.87519,0.87037 2.63424,1.07234 3.60466,1.11562l0.41739,0.01827l-0.19907,0.33663c-0.22122,0.37411 -0.35776,0.63476 -0.38183,0.68381c0.88001,1.24644 2.75349,1.24546 3.43252,1.20892l0.23753,-0.01348l0.03849,0.21545c0.00961,0.05386 0.02305,0.09906 0.0423,0.13752c0.11635,0.24043 0.40488,0.34718 0.87519,0.50587c0.26642,0.08946 0.56839,0.19139 0.88001,0.35008c0.64147,0.32605 1.48107,0.40684 2.27742,0.24141l0.19233,-0.04038l0.0962,0.15963c0.29908,0.50108 1.76289,1.15698 2.57846,0.99158c0.45683,-0.08946 0.85595,-1.59267 0.72611,-4.71067c-0.44914,-2.06295 -1.4657,-2.22356 -1.76579,-2.22356z" fill="url(#color-20)"/><g><path d="M208.55097,170.47217c-8.34606,-5.18384 -8.84617,-7.66034 -8.84617,-7.66034c0,0 4.22206,3.97394 13.17211,5.90897l3.67197,2.33897c-0.00094,0 -4.82605,1.38204 -7.99791,-0.58761z" fill="url(#color-21)"/><path d="M212.90192,171.7715c-1.80809,0 -3.32189,-0.37027 -4.49812,-1.10025c-8.34124,-5.18094 -8.93657,-7.71036 -8.95676,-7.81519l-0.15775,-0.77805l0.60207,0.5655c0.04234,0.03944 4.28458,3.94991 13.13463,5.88016l4.11244,2.61981l-0.51167,0.14619c-0.06829,0.02019 -1.70613,0.48184 -3.72293,0.48184c-0.00192,0 -0.00094,0 -0.00192,0zM215.93434,170.95883l-3.118,-2.00336c-6.3745,-1.37816 -10.40615,-3.81623 -12.20557,-5.11168c0.90883,1.17333 3.06123,3.30648 8.08639,6.42927c1.08775,0.67518 2.50248,1.01754 4.20575,1.01754c1.26663,0 2.39668,-0.19617 3.03144,-0.33177z" fill="url(#color-22)"/></g><g><path d="M207.95082,171.78494c-8.33258,-5.76471 -8.66055,-6.72646 -8.66055,-6.72646c0,0 4.39039,3.30648 14.63687,5.029l3.88836,2.02351c0.00098,0 -6.80631,1.79076 -9.86468,-0.32605z" fill="url(#color-23)"/><path d="M212.36912,173.05831c-1.99948,0 -3.53923,-0.36352 -4.57601,-1.08198c-8.16428,-5.6493 -8.71633,-6.74186 -8.75193,-6.84763l-0.2616,-0.7646l0.67706,0.50779c0.04426,0.0327 4.47311,3.28919 14.60033,5.00688l4.43081,2.30533l-0.59917,0.15771c-0.11157,0.02885 -2.75639,0.7165 -5.51855,0.7165c-0.00094,0 -0.00094,0 -0.00094,0zM217.12304,172.02444l-3.24204,-1.70036c-6.53319,-1.09833 -10.67735,-2.81888 -12.86053,-3.94897c1.18677,0.98198 3.30648,2.60252 7.0881,5.21846c0.94443,0.65401 2.37743,0.98484 4.26055,0.98484v0c1.91002,-0.00094 3.80659,-0.3491 4.75391,-0.55397z" fill="url(#color-24)"/></g><g><path d="M218.34062,172.72749c-0.67706,0.4039 -3.49403,2.86311 -8.80289,1.38008c-5.30886,-1.48299 -7.20927,-5.16938 -7.20927,-5.16938c0.76457,0.44048 5.96381,2.766 8.08255,2.66501c2.11873,-0.10099 6.35619,0.24043 6.33502,0.22024c0,0 2.27264,0.5001 1.59459,0.90405z" fill="url(#color-25)"/><path d="M212.77691,174.81831c-1.05792,0 -2.17357,-0.16155 -3.31707,-0.48086c-5.35696,-1.49647 -7.29007,-5.14249 -7.36894,-5.29636l-0.38375,-0.74535l0.75978,0.43856c0.74343,0.42797 5.69163,2.63036 7.80558,2.63036l0.12502,-0.00286c1.66963,-0.0779 4.68276,0.11635 5.84362,0.19041c0.13654,0.00866 0.24909,0.01635 0.33275,0.02117l0.01541,-0.03367l0.21832,0.0481c0.82901,0.18272 1.83597,0.48952 1.91578,0.91463c0.01733,0.09522 0.01058,0.27602 -0.24043,0.42511c-0.06061,0.03748 -0.14042,0.09232 -0.24043,0.15963c-0.7617,0.51935 -2.54192,1.73114 -5.46563,1.73114zM218.15308,172.55339c-0.20389,-0.13944 -0.81364,-0.3491 -1.43685,-0.48858c-0.06829,-0.00286 -0.24909,-0.01443 -0.51167,-0.03077c-1.15024,-0.075 -4.12879,-0.2683 -5.78106,-0.19041l-0.15101,0.00384c-1.82734,0 -5.48198,-1.47628 -7.2237,-2.27934c0.84536,1.13005 2.86699,3.27763 6.5649,4.31057c1.09253,0.30488 2.15625,0.46067 3.1632,0.46067c2.75059,0 4.43367,-1.14545 5.15307,-1.63497c0.08174,-0.05771 0.15195,-0.10581 0.2231,-0.15101z" fill="url(#color-26)"/></g><g><path d="M213.35973,176.61198c0,0 -5.17808,0.18084 -6.79381,-2.64479c0,0 4.7193,0.07982 6.64186,-0.6617c1.92252,-0.74151 4.45672,-0.6617 6.11671,-0.36066c1.65998,0.30006 1.02718,0.90212 1.02718,0.90212c0,0 -4.65489,2.66501 -6.99194,2.76502z" fill="url(#color-27)"/><path d="M213.17313,176.85436c-0.87806,0 -5.32905,-0.13466 -6.83995,-2.77564l-0.20581,-0.35968l0.84442,0.00961c1.04639,0 4.58272,-0.04614 6.13309,-0.64437c1.01272,-0.39046 2.29569,-0.59725 3.70945,-0.59725c1.10025,0 1.99948,0.12121 2.55925,0.2222c0.77899,0.14039 1.21469,0.37219 1.32912,0.70592c0.11059,0.32409 -0.13658,0.57126 -0.21448,0.63473c-0.19233,0.11063 -4.73855,2.69967 -7.11982,2.80159l-0.19526,0.0029v0zM220.1622,173.6796v0c0.00094,0 0.05963,-0.06633 0.04038,-0.1202c-0.00866,-0.02215 -0.10001,-0.22796 -0.93098,-0.37893c-0.53664,-0.09714 -1.39933,-0.21353 -2.45728,-0.21353c-1.34547,0 -2.55823,0.19331 -3.50653,0.55977c-1.57437,0.60685 -4.8674,0.68091 -6.27638,0.68185c1.56092,2.05432 5.35888,2.16397 6.14077,2.16397v0l0.17406,-0.00192c2.23994,-0.09428 6.80153,-2.691 6.81595,-2.691z" fill="url(#color-28)"/></g><g><path d="M216.4181,179.03655c0,0 -3.16704,0.16061 -4.45582,-1.12236c0,0 3.5604,-5.029 8.27875,-4.34809c4.71933,0.68094 1.59459,1.23491 1.59459,1.23491z" fill="url(#color-29)"/><path d="M216.07763,179.28373c-0.93098,0 -3.21416,-0.11831 -4.30767,-1.20602l-0.1385,-0.13756l0.11059,-0.15677c0.13082,-0.18464 3.25074,-4.52117 7.61514,-4.52117c0.30778,0 0.61939,0.02211 0.92427,0.06637c2.34665,0.33949 2.82367,0.63668 2.82947,1.00597c0.00768,0.38375 -0.61073,0.58572 -1.15702,0.68957l-5.43388,4.24808l-0.0875,0.00384c0,0 -0.13176,0.00768 -0.3549,0.00768v0zM216.31711,178.799l5.3483,-4.18168l0.1202,-0.05288c0.29527,-0.05194 0.60591,-0.14811 0.74728,-0.22506c-0.15963,-0.09232 -0.67993,-0.29719 -2.33415,-0.5357c-4.02781,-0.58184 -7.24295,3.24015 -7.89692,4.08069c1.04443,0.8483 3.13435,0.91753 3.77389,0.91753v0c0.10388,0.00094 0.18562,-0.00098 0.24141,-0.0029z" fill="url(#color-30)"/></g><g><path d="M219.10907,181.25436c0,0 -2.62558,0.34623 -3.70658,-1.18681c0,0 2.65443,-5.25982 5.93112,-5.31945c3.27669,-0.05963 -1.63019,5.98016 -2.22454,6.50626z" fill="url(#color-31)"/><path d="M218.47238,181.52846c-0.87903,0 -2.47457,-0.17312 -3.29014,-1.3301l-0.07887,-0.11157l0.06061,-0.12023c0.11059,-0.22024 2.76212,-5.39636 6.21675,-5.45983c0.7915,0 1.10888,0.34236 1.23585,0.62994c0.73379,1.66575 -3.05069,6.04653 -3.32573,6.2908l-0.14524,0.06539c0,0 -0.26736,0.03559 -0.67322,0.03559zM218.98597,181.02545c0.66358,-0.6617 3.67867,-4.49714 3.14587,-5.70798c-0.06347,-0.14042 -0.20871,-0.32891 -0.79153,-0.32891c-0.00094,0 -0.00094,0 -0.00192,0c-2.8054,0.05096 -5.21266,4.2769 -5.63295,5.05785c0.92808,1.13871 2.86024,1.0175 3.28053,0.97904z" fill="url(#color-32)"/></g><g><path d="M223.41,182.66043c0,0 -1.32238,0.4126 -2.50245,-0.18849c-1.18007,-0.60109 -2.22838,-0.39049 -1.63885,-1.7427c0.58956,-1.35221 3.1786,-5.58971 3.40751,-5.62048c0.2289,-0.03077 2.0591,0.48956 1.88214,2.60445c-0.17696,2.11489 -1.14835,4.94722 -1.14835,4.94722z" fill="url(#color-33)"/><path d="M222.36557,183.03936c-0.58764,0 -1.12044,-0.1202 -1.58499,-0.35682c-0.29716,-0.15097 -0.59148,-0.25003 -0.85018,-0.33757c-0.45588,-0.15387 -0.85018,-0.28563 -1.01848,-0.63089c-0.1289,-0.26642 -0.09522,-0.59823 0.11251,-1.0743c0.28853,-0.66264 3.10259,-5.70222 3.67291,-5.77239c0.21832,0 0.87135,0.17696 1.40129,0.7011c0.37991,0.37603 0.81364,1.05697 0.72034,2.16299c-0.17696,2.11775 -1.11852,4.88473 -1.15988,5.00108l-0.03846,0.11639l-0.12694,0.03944c-0.01925,0.00671 -0.49148,0.15097 -1.12813,0.15097v0zM223.20132,182.46519c0.18657,-0.5655 0.94443,-2.95449 1.09637,-4.7703c0.06253,-0.74148 -0.12886,-1.3426 -0.56934,-1.78692c-0.36066,-0.36352 -0.78961,-0.51547 -0.95599,-0.55205c-0.45106,0.51841 -2.68038,4.13459 -3.25842,5.46277c-0.14521,0.33177 -0.18562,0.56742 -0.1202,0.70015c0.0779,0.15963 0.36066,0.25486 0.72034,0.37603c0.27602,0.0933 0.59051,0.19907 0.92231,0.3674c0.38567,0.19715 0.83383,0.29621 1.33108,0.29621v0c0.3645,0 0.67224,-0.05676 0.83383,-0.0933z" fill="url(#color-34)"/></g><g><path d="M226.77325,179.076c0,0 0.19715,4.56829 -0.72132,4.74913c-0.91847,0.1808 -2.42455,-0.57129 -2.6217,-1.05215c-0.19719,-0.48089 0.65495,-5.19925 1.01558,-5.65031c0.36066,-0.45106 1.80331,-0.45106 2.32744,1.95333z" fill="url(#color-35)"/><path d="M225.749,184.09249c-0.96175,0 -2.32744,-0.65785 -2.56403,-1.23491c-0.23082,-0.56452 0.62226,-5.34348 1.05023,-5.87726c0.16348,-0.20581 0.45585,-0.32985 0.77805,-0.32985c0.352,0 1.53493,0.17214 2.02159,2.41589c0.06061,1.43398 0.09424,4.79241 -0.92808,4.99344c-0.11059,0.02211 -0.23082,0.0327 -0.35776,0.0327v0zM225.0142,177.13133c-0.18367,0 -0.3068,0.07213 -0.35678,0.13274c-0.30488,0.3972 -1.12911,4.96165 -0.981,5.42427c0.11831,0.28853 1.1974,0.92326 2.07259,0.92326c0.0904,0 0.17406,-0.00671 0.24717,-0.02211c0.33177,-0.06445 0.62128,-2.0043 0.51932,-4.46636c-0.32025,-1.46762 -0.98578,-1.99179 -1.50129,-1.99179z" fill="url(#color-36)"/></g></g><g><path d="M227.05119,171.97732c0,0 2.14664,2.38033 1.62247,4.60487c-0.52414,2.22356 -1.88791,3.5152 -2.74577,2.38899c-0.8579,-1.12621 -9.18088,-7.37761 -12.16327,-8.42976c-2.98142,-1.05215 -12.25556,-5.53004 -13.20484,-9.16645c0,0 3.83356,3.6662 8.74906,5.23002c4.91453,1.56284 9.73195,3.54691 11.86126,4.20763c2.12932,0.65977 5.8811,1.1647 5.8811,1.1647z" fill="url(#color-37)"/><path d="M226.65207,179.50589c-0.3068,0 -0.59051,-0.15963 -0.82133,-0.46165c-0.91271,-1.19928 -9.17896,-7.3564 -12.10749,-8.38934c-2.63808,-0.93192 -12.28249,-5.42714 -13.28082,-9.25011l-0.10769,-0.41068l0.3068,0.29335c0.03846,0.03654 3.87104,3.6662 8.70288,5.20211c2.89004,0.91941 5.74644,1.98313 8.04213,2.83907c1.57923,0.58858 2.94394,1.09735 3.81913,1.36859c2.09564,0.65013 5.82437,1.15698 5.86185,1.16176c0.16253,0.1385 2.25629,2.4919 1.72345,4.75105c-0.40296,1.70424 -1.282,2.89584 -2.13892,2.89584zM200.82811,161.77796c1.47436,3.37477 9.74445,7.50839 12.97594,8.64902c2.95354,1.04157 11.29671,7.2593 12.21902,8.47014c0.76076,1.00021 2.05142,-0.30103 2.53326,-2.34379c0.503,-2.13221 -1.5657,-4.46444 -1.59456,-4.4962c0.03556,0.04042 -3.71909,-0.47702 -5.82821,-1.13197c-0.88193,-0.27316 -2.24857,-0.78287 -3.83164,-1.37243c-2.29279,-0.85402 -5.14629,-1.9177 -8.03155,-2.83523c-4.03553,-1.28298 -7.38047,-4.00954 -8.44226,-4.93954z" fill="url(#color-38)"/></g></g><path d="M256.77258,179.7656c0,3.85668 4.97677,9.52326 2.83074,10.5657c-3.04635,1.47977 -14.49043,8.6746 -19.8921,8.6746c-5.42044,0 -15.57667,-7.45191 -18.62135,-8.95058c-2.12689,-1.04691 2.34145,-6.45205 2.34145,-10.28972c0,-9.33135 7.46369,-16.89591 16.67063,-16.89591c9.20693,0 16.67063,7.56455 16.67063,16.89591z" fill="url(#color-39)" stroke="#acacac" stroke-width="2"/><path d="M252.55392,180.08141c0,0 -6.1515,0.23707 -7.70972,3.12749c-2.47447,4.58999 -4.66347,12.30644 -4.66347,12.30644c0,0 -1.83743,-7.84044 -3.9443,-11.41647c-2.26591,-3.846 -8.94987,-4.01745 -8.94987,-4.01745c0,0 5.65629,-5.0144 12.63368,-5.0144c6.97739,0 12.63368,5.0144 12.63368,5.0144z" fill="url(#color-40)" stroke="none" stroke-width="0"/></g></g></svg>