<svg version="1.1" xmlns="http://www.w3.org/2000/svg" xmlns:xlink="http://www.w3.org/1999/xlink" width="49.62796" height="24.09815" viewBox="0,0,49.62796,24.09815"><defs><radialGradient cx="257.88151" cy="175.67923" r="7.55148" gradientUnits="userSpaceOnUse" id="color-1"><stop offset="0" stop-color="#ffffff"/><stop offset="1" stop-color="#a8a8a8"/></radialGradient><radialGradient cx="239.40686" cy="181.30772" r="17.26638" gradientUnits="userSpaceOnUse" id="color-2"><stop offset="0" stop-color="#a97c43"/><stop offset="1" stop-color="#7a4d00"/></radialGradient><radialGradient cx="222.11852" cy="175.25964" r="7.55148" gradientUnits="userSpaceOnUse" id="color-3"><stop offset="0" stop-color="#ffffff"/><stop offset="1" stop-color="#a8a8a8"/></radialGradient></defs><g transform="translate(-215.18602,-168.45093)"><g data-paper-data="{&quot;isPaintingLayer&quot;:true}" fill-rule="nonzero" stroke-linecap="butt" stroke-linejoin="miter" stroke-miterlimit="10" stroke-dasharray="" stroke-dashoffset="0" style="mix-blend-mode: normal"><path d="M257.82148,176.67228c3.33056,-2.36009 6.9925,-7.80174 6.9925,-7.80174c0,0 -0.46995,7.54107 -3.11974,12.83119c-1.9522,3.89741 -6.1064,6.29005 -6.90762,4.99525c-1.6087,-2.59969 -2.2902,-3.25711 -2.2902,-7.42768c0,-1.89658 2.54728,-0.62862 5.32506,-2.59701z" data-paper-data="{&quot;index&quot;:null}" fill="url(#color-1)" stroke="none" stroke-width="0"/><path d="M255.66037,189.54042c-3.04558,2.86373 -30.33132,2.81097 -33.10974,-1.10334c-1.20419,-1.69651 -0.95279,-18.0428 18.06052,-17.34923c17.25722,0.62951 17.26348,16.37053 15.04922,18.45258z" fill="url(#color-2)" stroke="#7b4e02" stroke-width="2"/><path d="M227.50359,178.84969c0,4.17057 -0.6815,4.82799 -2.2902,7.42768c-0.80123,1.2948 -4.95543,-1.09784 -6.90762,-4.99525c-2.6498,-5.29012 -3.11975,-12.83119 -3.11975,-12.83119c0,0 3.66194,5.44165 6.9925,7.80174c2.77779,1.96839 5.32507,0.70044 5.32507,2.59701z" fill="url(#color-3)" stroke="none" stroke-width="0"/></g></g></svg>