<svg version="1.1" xmlns="http://www.w3.org/2000/svg" xmlns:xlink="http://www.w3.org/1999/xlink" width="34.67868" height="34.11055" viewBox="0,0,34.67868,34.11055"><defs><radialGradient cx="240" cy="180.00001" r="15.83934" gradientUnits="userSpaceOnUse" id="color-1"><stop offset="0" stop-color="#91a0ff"/><stop offset="1" stop-color="#333a5a"/></radialGradient><linearGradient x1="247.04668" y1="171.60276" x2="235.13526" y2="188.98197" gradientUnits="userSpaceOnUse" id="color-2"><stop offset="0" stop-color="#f8ffff"/><stop offset="1" stop-color="#6effff"/></linearGradient><radialGradient cx="240.283" cy="181.47122" r="9.16876" gradientUnits="userSpaceOnUse" id="color-3"><stop offset="0" stop-color="#000000"/><stop offset="1" stop-color="#00052e"/></radialGradient></defs><g transform="translate(-222.66066,-162.94473)"><g data-paper-data="{&quot;isPaintingLayer&quot;:true}" fill-rule="nonzero" stroke-linecap="butt" stroke-linejoin="miter" stroke-miterlimit="10" stroke-dasharray="" stroke-dashoffset="0" style="mix-blend-mode: normal"><path d="M224.16066,195.55529v-31.11055h31.67868v31.11055z" fill="url(#color-1)" stroke="#2d334f" stroke-width="3"/><path d="M249.87701,172.9728c-0.92695,1.17987 -2.71752,1.31997 -3.99936,0.31292c-1.28184,-1.00705 -1.56954,-2.7799 -0.64259,-3.95978c0.37781,-0.48091 0.77851,-1.39566 1.35034,-1.52382c0.83113,-0.18627 1.88964,0.61431 2.64901,1.2109c0.63865,0.50175 1.61829,1.31413 1.73611,2.02803c0.11865,0.71896 -0.62841,1.33974 -1.09352,1.93176z" fill="#903d0e" stroke="#4f2a11" stroke-width="1"/><path d="M246.43341,189.42754c-2.84302,4.14807 -7.93818,3.72775 -12.11506,0.86499c-4.17688,-2.86276 -6.75961,-7.54209 -3.91659,-11.69017c1.95294,-2.84941 6.19187,-5.55253 9.28303,-3.35283c0.48877,0.05162 2.27171,-1.7478 2.96817,-2.57971c0.64262,-0.76761 -0.45258,0.03288 0.0833,-2.60568c0.28873,-1.42164 8.82484,3.84026 6.89531,4.91328c-3.10446,1.7264 -1.47162,0.82303 -1.84291,1.32009c-2.7377,2.39156 -1.88868,2.88822 -1.6625,3.38328c3.20514,1.20331 2.17582,7.02044 0.30725,9.74675z" fill="url(#color-2)" stroke="url(#color-3)" stroke-width="1.5"/></g></g></svg>