<svg version="1.1" xmlns="http://www.w3.org/2000/svg" xmlns:xlink="http://www.w3.org/1999/xlink" width="59.84697" height="54.40502" viewBox="0,0,59.84697,54.40502"><defs><linearGradient x1="213.80059" y1="178.72358" x2="246.2909" y2="203.84219" gradientUnits="userSpaceOnUse" id="color-1"><stop offset="0" stop-color="#9d9d9d"/><stop offset="1" stop-color="#b2b2b2"/></linearGradient><linearGradient x1="212.38445" y1="194.86756" x2="246.60923" y2="204.6284" gradientUnits="userSpaceOnUse" id="color-2"><stop offset="0" stop-color="#9d9d9d"/><stop offset="1" stop-color="#b8b8b8"/></linearGradient><linearGradient x1="220.9246" y1="167.03242" x2="246.3225" y2="189.32209" gradientUnits="userSpaceOnUse" id="color-3"><stop offset="0" stop-color="#ababab"/><stop offset="1" stop-color="#ababab"/></linearGradient><linearGradient x1="212.36721" y1="178.36814" x2="230.55733" y2="194.33213" gradientUnits="userSpaceOnUse" id="color-4"><stop offset="0" stop-color="#c1c1c1"/><stop offset="1" stop-color="#dbdbdb"/></linearGradient><linearGradient x1="222.05097" y1="162.90567" x2="234.45963" y2="187.33157" gradientUnits="userSpaceOnUse" id="color-5"><stop offset="0" stop-color="#c1c1c1"/><stop offset="1" stop-color="#dbdbdb"/></linearGradient><linearGradient x1="236.76161" y1="159.39467" x2="250.85063" y2="198.79206" gradientUnits="userSpaceOnUse" id="color-6"><stop offset="0" stop-color="#ababab"/><stop offset="1" stop-color="#ababab"/></linearGradient><linearGradient x1="236.43639" y1="152.53042" x2="237.79837" y2="177.11033" gradientUnits="userSpaceOnUse" id="color-7"><stop offset="0" stop-color="#c1c1c1"/><stop offset="1" stop-color="#dbdbdb"/></linearGradient><linearGradient x1="212.51171" y1="195.74933" x2="230.64874" y2="199.84894" gradientUnits="userSpaceOnUse" id="color-8"><stop offset="0" stop-color="#c1c1c1"/><stop offset="1" stop-color="#dbdbdb"/></linearGradient><linearGradient x1="266.4566" y1="168.85094" x2="239.14958" y2="200.55265" gradientUnits="userSpaceOnUse" id="color-9"><stop offset="0" stop-color="#acacac"/><stop offset="1" stop-color="#afafaf"/></linearGradient><linearGradient x1="269.11907" y1="167.22192" x2="251.19385" y2="184.09537" gradientUnits="userSpaceOnUse" id="color-10"><stop offset="0" stop-color="#c1c1c1"/><stop offset="1" stop-color="#dbdbdb"/></linearGradient></defs><g transform="translate(-210.07651,-152.67249)"><g data-paper-data="{&quot;isPaintingLayer&quot;:true}" fill-rule="nonzero" stroke-linecap="butt" stroke-linejoin="miter" stroke-miterlimit="10" stroke-dasharray="" stroke-dashoffset="0" style="mix-blend-mode: normal"><path d="M222.43298,181.71888c0,0 4.71363,3.22332 7.11301,3.88438c1.71794,0.47331 4.24629,1.85071 8.18544,2.18362c1.9012,0.16067 5.00481,5.69035 5.05919,7.31307c0.07274,2.17064 -1.40774,4.67294 -2.4978,4.78984c-1.60832,0.17248 -1.95731,-2.11819 -4.19849,-3.27298c-2.33291,-1.20206 -5.11026,-1.82915 -6.33644,-2.61639c-2.36971,-1.52141 -8.39032,-3.37048 -8.39032,-3.37048c0,0 -0.63502,1.63349 -4.11472,-1.49141c-2.22327,-1.99659 -4.07586,-4.43727 -3.80605,-7.78935c0.20728,-2.57509 1.70982,-2.65309 3.38815,-2.86896c2.7919,-0.35912 5.59803,3.23866 5.59803,3.23866z" fill="url(#color-1)" stroke="none" stroke-width="0"/><path d="M219.38649,194.79393c0,0 4.72601,1.11096 6.57476,0.96617c1.32368,-0.10368 3.65883,0.23735 6.26625,-0.54586c1.25845,-0.37801 6.30724,2.82388 7.26312,3.98626c1.27863,1.55485 1.79232,3.75415 1.18961,4.12243c-0.88926,0.54338 -2.40572,-1.02663 -4.43802,-1.28095c-2.11549,-0.26473 -4.17693,0.003 -5.3772,-0.24884c-2.31962,-0.48669 -7.06674,-0.26135 -7.06674,-0.26135c0,0 0.53879,1.34949 -3.3738,-0.01107c-2.49985,-0.8693 -5.02462,-2.157 -6.7646,-4.65752c-1.33666,-1.92092 -0.45861,-2.36828 0.44896,-2.96132c1.50974,-0.98655 5.27767,0.89205 5.27767,0.89205z" fill="url(#color-2)" stroke="none" stroke-width="0"/><path d="M229.76298,169.75742c0,0 3.75919,4.39975 5.95707,5.5681c1.57366,0.83652 3.69209,2.81209 7.51877,3.9075c1.84691,0.52869 3.33322,7.15142 2.91644,8.93591c-0.55751,2.38701 -2.75825,4.84831 -3.87786,4.77374c-1.6519,-0.11002 -1.33469,-2.67957 -3.23172,-4.35842c-1.97466,-1.74756 -3.75263,-3.86755 -4.74541,-4.95604c-1.91863,-2.10359 -14.62158,-12.32826 -13.38002,-15.94353c0.95379,-2.77728 2.47294,-2.58358 4.20715,-2.508c2.88488,0.1257 4.63558,4.58075 4.63558,4.58075z" fill="url(#color-3)" stroke="none" stroke-width="0"/><path d="M218.51597,179.46117c0,0 4.6666,2.06816 6.437,2.22519c1.26759,0.11244 1.79606,-0.86917 3.345,0.44045c1.92846,1.6305 4.24144,3.89472 6.81798,7.01101c-4.2886,0.90256 -8.09465,1.07785 -11.03836,1.06384c-2.45134,-0.01167 -2.36943,-0.56499 -3.82817,-1.47653c-1.43783,-0.89846 -5.81211,-1.45538 -5.81211,-1.45538c0,0 -1.11544,1.5063 -2.9081,-0.5755c-1.14538,-1.33013 -1.82185,-3.10351 -0.39712,-6.01856c1.09449,-2.23935 2.37912,-2.56209 3.8601,-3.03279c2.46363,-0.78302 3.52377,1.81828 3.52377,1.81828z" fill="url(#color-4)" stroke="#c1c1c1" stroke-width="0.5"/><path d="M227.92576,167.06354c0,0 3.97502,4.33536 5.72811,5.38234c1.25519,0.74963 2.18009,0.08256 3.25615,2.11509c1.33972,2.53056 2.82606,5.85961 4.2498,10.13385c-4.74762,-1.3142 -8.71673,-3.07649 -11.72814,-4.582c-2.50771,-1.25368 -2.20771,-1.73919 -3.34677,-3.34684c-1.12274,-1.58461 -5.38827,-4.33236 -5.38827,-4.33236c0,0 -1.73134,0.86933 -2.75565,-2.02226c-0.65446,-1.84751 -0.65528,-3.87952 1.94313,-5.93386c1.99612,-1.57816 3.4387,-1.23438 5.14029,-0.93201c2.83061,0.50298 2.90136,3.51805 2.90136,3.51805z" fill="url(#color-5)" stroke="#c1c1c1" stroke-width="0.5"/><path d="M242.71004,166.33289c0,0 2.29628,5.31192 4.05245,7.07587c1.25741,1.26298 2.69986,3.77493 6.03404,5.94902c1.60922,1.04931 1.07861,7.816 0.15464,9.39853c-1.23595,2.11686 -4.06408,3.82063 -5.11203,3.41955c-1.5462,-0.59177 -0.48611,-2.95385 -1.80439,-5.11702c-1.37222,-2.25171 -2.44679,-4.80139 -3.07486,-6.13404c-1.21381,-2.57545 -10.34105,-16.08848 -8.08958,-19.17759c1.72961,-2.37306 3.12428,-1.74045 4.75928,-1.15736c2.71984,0.96996 3.08047,5.74305 3.08047,5.74305z" fill="url(#color-6)" stroke="none" stroke-width="0"/><path d="M240.02189,157.77426c0,0 1.82171,4.86196 2.96858,6.2595c0.82115,1.00063 1.91039,0.6853 2.0625,2.74291c0.18938,2.56177 0.19241,5.85412 -0.23564,9.94473c-3.70988,-2.47165 -6.54793,-5.11083 -8.63432,-7.2586c-1.73742,-1.78852 -1.27724,-2.12312 -1.65421,-3.8317c-0.37157,-1.68409 -3.08257,-5.25743 -3.08257,-5.25743c0,0 -1.88834,0.26277 -1.65326,-2.52181c0.15021,-1.77913 0.95628,-3.53344 4.08797,-4.57493c2.40579,-0.80008 3.5551,-0.097 4.95171,0.64328c2.32329,1.23145 1.18923,3.85405 1.18923,3.85405z" fill="url(#color-7)" stroke="#c1c1c1" stroke-width="0.5"/><path d="M217.06321,194.23047c0,0 3.90893,-0.31669 5.16157,-0.86045c0.89687,-0.38933 0.89333,-1.24584 2.41949,-0.93034c1.9001,0.39282 4.29232,1.07226 7.17515,2.23011c-2.56351,2.18316 -5.06822,3.69834 -7.06034,4.76924c-1.65891,0.89178 -1.80669,0.48823 -3.12586,0.40833c-1.30026,-0.07876 -4.45725,1.15072 -4.45725,1.15072c0,0 -0.20008,1.4261 -2.17414,0.67882c-1.26128,-0.47746 -2.36874,-1.4262 -2.47691,-3.91671c-0.08309,-1.91323 0.66558,-2.60254 1.49247,-3.46379c1.37554,-1.43269 3.04582,-0.06594 3.04582,-0.06594z" fill="url(#color-8)" stroke="#c1c1c1" stroke-width="0.5"/><path d="M263.51378,177.58721c0,0 -0.1064,4.92455 -0.72332,7.36741c-0.44171,1.74907 -1.75626,1.42588 -1.88705,5.50052c-0.06313,1.96659 -13.07801,16.70363 -14.97681,16.62203c-2.53992,-0.10917 -6.00813,-3.87423 -6.21698,-5.01961c-0.30814,-1.68992 1.41358,-7.41447 2.61973,-9.6505c1.25554,-2.32753 3.4525,-4.22101 4.29464,-5.43113c0.59099,-0.84923 3.86632,-3.99753 6.16882,-7.16092c4.03825,-5.54815 8.04834,-11.91716 10.56241,-11.55629c3.03251,0.4353 3.22294,2.007 3.58657,3.77352c0.60492,2.93863 -3.42801,5.55496 -3.42801,5.55496z" fill="url(#color-9)" stroke="none" stroke-width="0"/><path d="M267.41715,173.34214c0,0 -2.54583,4.52504 -2.8762,6.30249c-0.23654,1.27263 0.70623,1.90275 -0.76977,3.34439c-1.83765,1.79487 -4.35419,3.91774 -7.75902,6.22501c-0.49878,-4.42983 -0.3079,-8.30068 -0.00878,-11.28001c0.24909,-2.48101 0.80144,-2.3445 1.86562,-3.73334c1.04892,-1.36893 2.03625,-5.74426 2.03625,-5.74426c0,0 -1.41726,-1.27524 0.86422,-2.88892c1.4577,-1.03102 3.31884,-1.54434 6.13261,0.18044c2.16155,1.325 2.364,2.65701 2.69726,4.20216c0.5544,2.57037 -2.1822,3.39204 -2.1822,3.39204z" fill="url(#color-10)" stroke="#c1c1c1" stroke-width="0.5"/></g></g></svg>