<svg version="1.1" xmlns="http://www.w3.org/2000/svg" xmlns:xlink="http://www.w3.org/1999/xlink" width="75.75655" height="101.17745" viewBox="0,0,75.75655,101.17745"><defs><radialGradient cx="243.3909" cy="202.83064" r="32.38001" gradientUnits="userSpaceOnUse" id="color-1"><stop offset="0" stop-color="#f2f2f2"/><stop offset="1" stop-color="#dbdbdb"/></radialGradient><radialGradient cx="240.00001" cy="169.07028" r="39.25559" gradientUnits="userSpaceOnUse" id="color-2"><stop offset="0" stop-color="#ebebeb"/><stop offset="1" stop-color="#dadada"/></radialGradient><radialGradient cx="237.70946" cy="203.44649" r="4.27329" gradientUnits="userSpaceOnUse" id="color-3"><stop offset="0" stop-color="#ffffff"/><stop offset="1" stop-color="#cdcdcd"/></radialGradient><radialGradient cx="245.09092" cy="203.77446" r="4.36149" gradientUnits="userSpaceOnUse" id="color-4"><stop offset="0" stop-color="#ffffff"/><stop offset="1" stop-color="#cdcdcd"/></radialGradient><radialGradient cx="252.58122" cy="204.05446" r="4.04615" gradientUnits="userSpaceOnUse" id="color-5"><stop offset="0" stop-color="#ffffff"/><stop offset="1" stop-color="#cdcdcd"/></radialGradient><radialGradient cx="230.13728" cy="204.15468" r="4.17038" gradientUnits="userSpaceOnUse" id="color-6"><stop offset="0" stop-color="#ffffff"/><stop offset="1" stop-color="#cdcdcd"/></radialGradient><radialGradient cx="260.25588" cy="205.37934" r="4.04384" gradientUnits="userSpaceOnUse" id="color-7"><stop offset="0" stop-color="#ffffff"/><stop offset="1" stop-color="#cdcdcd"/></radialGradient><radialGradient cx="222.83148" cy="205.49109" r="3.98456" gradientUnits="userSpaceOnUse" id="color-8"><stop offset="0" stop-color="#ffffff"/><stop offset="1" stop-color="#cdcdcd"/></radialGradient><radialGradient cx="227.93451" cy="187.17948" r="9.1128" gradientUnits="userSpaceOnUse" id="color-9"><stop offset="0" stop-color="#ff0000"/><stop offset="1" stop-color="#000000"/></radialGradient><radialGradient cx="254.18451" cy="186.67948" r="9.11281" gradientUnits="userSpaceOnUse" id="color-10"><stop offset="0" stop-color="#ff0000"/><stop offset="1" stop-color="#000000"/></radialGradient><radialGradient cx="238.08695" cy="215.48375" r="4.27329" gradientUnits="userSpaceOnUse" id="color-11"><stop offset="0" stop-color="#ffffff"/><stop offset="1" stop-color="#cdcdcd"/></radialGradient><radialGradient cx="245.4684" cy="215.15578" r="4.36149" gradientUnits="userSpaceOnUse" id="color-12"><stop offset="0" stop-color="#ffffff"/><stop offset="1" stop-color="#cdcdcd"/></radialGradient><radialGradient cx="252.9587" cy="214.87577" r="4.04615" gradientUnits="userSpaceOnUse" id="color-13"><stop offset="0" stop-color="#ffffff"/><stop offset="1" stop-color="#cdcdcd"/></radialGradient><radialGradient cx="230.51477" cy="214.77556" r="4.17039" gradientUnits="userSpaceOnUse" id="color-14"><stop offset="0" stop-color="#ffffff"/><stop offset="1" stop-color="#cdcdcd"/></radialGradient><radialGradient cx="260.63335" cy="213.5509" r="4.04385" gradientUnits="userSpaceOnUse" id="color-15"><stop offset="0" stop-color="#ffffff"/><stop offset="1" stop-color="#cdcdcd"/></radialGradient><radialGradient cx="223.20897" cy="213.43915" r="3.98455" gradientUnits="userSpaceOnUse" id="color-16"><stop offset="0" stop-color="#ffffff"/><stop offset="1" stop-color="#cdcdcd"/></radialGradient></defs><g transform="translate(-202.12314,-129.31469)"><g data-paper-data="{&quot;isPaintingLayer&quot;:true}" fill-rule="nonzero" stroke-linejoin="miter" stroke-miterlimit="10" stroke-dasharray="" stroke-dashoffset="0" style="mix-blend-mode: normal"><path d="M264.67248,221.42229c0,1.64333 -5.19684,9.05838 -5.1185,6.94555c0.8971,2.03152 -9.70179,1.582 -15.70353,1.582c-6.08282,0 -14.98061,0.88676 -20.44495,-0.78151c-3.06082,-0.93447 -4.13689,-6.32041 -6.46246,-7.92466c-2.43427,-1.67923 -4.3593,-3.75416 -5.55222,-6.28505c2.14187,-1.87844 1.06453,-9.06612 1.06453,-12.12799c0,-13.55736 13.67231,-24.54778 30.53795,-24.54778c7.63136,0 27.908,11.45027 27.0011,20.95063c-1.36352,14.28367 0.9638,15.90307 0.9638,15.90307z" fill="url(#color-1)" stroke="#c1c1c1" stroke-width="1" stroke-linecap="butt"/><path d="M270.6069,193.71883c0.52258,5.80755 6.01777,7.70204 6.01777,7.70204l-11.10953,5.8547c0,0 -10.2375,-7.29449 -24.0146,-7.3811c-7.85438,-0.04937 -17.08317,4.65974 -25.65868,8.33013c-2.0917,0.89526 -10.92407,-4.44011 -10.92407,-4.44011c0,0 4.6395,-4.08605 4.78699,-8.23015c0.13876,-3.8988 -6.24625,-10.83719 -6.53581,-14.05517c-1.51276,-16.81174 -0.02635,-29.50399 6.29143,-36.53531c3.13187,-3.48559 5.6441,-9.72049 11.37371,-10.23605c1.50304,-0.05004 0.84436,-1.70687 6.11303,-2.9184c8.38876,-1.929 24.69364,-3.40628 29.88207,0.24597c0.7511,0.52871 1.58228,2.20733 2.87499,2.32744c4.75014,0.44137 5.20345,2.46567 7.37044,4.45754c2.80951,2.58245 4.12399,5.76252 6.06671,9.22332c3.32677,5.92637 3.43875,13.26005 4.14148,19.94227c1.06167,10.0953 -7.22862,19.57089 -6.67595,25.71289z" fill="url(#color-2)" stroke="#c1c1c1" stroke-width="1" stroke-linecap="butt"/><g fill="none" stroke="#bbbbbb" stroke-linecap="round"><path d="M228.78452,169.0018l0.73213,4.54852l-11.04159,19.76808l-0.10965,4.44557" stroke-width="1"/><path d="M217.48962,144.93116c0,0 -0.52413,7.41086 -1.57287,10.97342c-1.03011,3.49929 -5.2108,9.33897 -5.2108,9.33897" stroke-width="1.5"/><path d="M269.62266,162.83187c0,0 -4.42251,-5.65875 -5.59883,-9.11163c-1.19759,-3.51531 -2.03282,-10.89759 -2.03282,-10.89759" data-paper-data="{&quot;index&quot;:null}" stroke-width="1.5"/><path d="M228.89375,175.24548l4.68086,-1.17021" stroke-width="1"/><path d="M215.80865,193.8625l2.65957,2.12766" stroke-width="1"/></g><g stroke="#c1c1c1" stroke-width="0.5" stroke-linecap="butt"><path d="M234.22911,205.89501c-0.12596,-1.39978 -0.20666,-2.88935 0.01466,-3.82558c0.20215,-0.85513 -0.54981,-2.05931 0.22054,-2.12862c0.90536,-0.08146 0.91994,-0.2349 2.45991,-0.37347c0.92725,-0.08343 3.21847,-0.80428 3.5909,-0.06121c0.37972,0.75762 0.64356,4.46334 0.7797,5.97622c0.09781,1.08705 -0.16453,1.73734 -1.17278,1.82806c-1.52985,0.13766 -3.62909,0.32656 -4.50339,0.40523c-0.77034,0.06931 -1.29229,-0.73993 -1.38953,-1.82062z" fill="url(#color-3)"/><path d="M241.77657,206.31119c-0.12596,-1.39978 -0.20666,-2.88935 0.01467,-3.82559c0.20215,-0.85513 -0.65921,-2.42977 0.11113,-2.49909c0.43498,-0.03914 0.81796,-0.53582 2.02431,-0.57139c1.30456,-0.03847 3.53112,0.45182 4.33122,0.37982c0.53511,-0.04815 0.33646,2.26416 0.16959,4.48591c-0.12228,1.6281 0.51972,3.24599 -0.14758,3.46687c-1.45822,0.48268 -4.2395,0.30542 -5.1138,0.38409c-0.77034,0.06931 -1.2923,-0.73992 -1.38954,-1.82062z" fill="url(#color-4)"/><path d="M249.10085,206.27585c-0.12596,-1.39978 -0.20665,-2.88935 0.01468,-3.82559c0.20215,-0.85513 0.25979,-2.36035 1.03014,-2.42966c0.90536,-0.08146 5.02827,0.24631 5.32946,0.84725c0.37972,0.75762 0.55531,3.48245 0.69144,4.99533c0.09781,1.08705 -0.16453,1.73734 -1.17278,1.82806c-1.52985,0.13766 -3.62909,0.32656 -4.50339,0.40523c-0.77034,0.06931 -1.2923,-0.73992 -1.38954,-1.82062z" fill="url(#color-5)"/><path d="M226.65692,206.50031c-0.12596,-1.39978 -0.20666,-2.88934 0.01467,-3.82558c0.20215,-0.85513 -0.28951,-1.70241 0.48084,-1.77173c0.90536,-0.08146 3.53364,-0.77434 5.07361,-0.91291c0.92725,-0.08343 0.31577,0.74999 0.6882,1.49307c0.37972,0.75762 0.67227,3.09161 0.8084,4.60449c0.09781,1.08705 -0.16454,1.73734 -1.17279,1.82806c-1.52985,0.13766 -3.62909,0.32656 -4.50339,0.40523c-0.77034,0.06931 -1.2923,-0.73992 -1.38954,-1.82062z" fill="url(#color-6)"/><path d="M256.77552,207.59843c-0.12596,-1.39978 -0.20666,-2.88935 0.01467,-3.82559c0.20215,-0.85512 0.2598,-2.36034 1.03015,-2.42966c0.90537,-0.08146 4.84007,0.49501 5.2125,1.23808c0.37972,0.75761 0.67227,3.09161 0.8084,4.60449c0.09782,1.08705 -0.16454,1.73734 -1.17278,1.82806c-1.52985,0.13766 -3.62909,0.32656 -4.50339,0.40523c-0.77034,0.06931 -1.29229,-0.73992 -1.38954,-1.82062z" fill="url(#color-7)"/><path d="M219.64455,205.16806c0.20215,-0.85512 0.25979,-2.36034 1.03014,-2.42965c0.90536,-0.08147 2.82062,-1.09051 4.36059,-1.22908c0.92725,-0.08343 0.47949,1.7241 0.85192,2.46717c0.20306,0.40515 0.24817,2.12546 -0.1873,3.46515c-0.37885,1.16552 -1.19976,1.99453 -1.60652,2.03113c-0.30871,0.02778 -1.84737,-0.13796 -2.69461,-0.84993c-1.26692,-1.06465 -1.88685,-2.89373 -1.75422,-3.45478z" fill="url(#color-8)"/></g><path d="M234.64325,185.68998c-1.10933,3.50194 -7.71044,7.82513 -8.9024,8.23636c-4.19946,1.44885 -7.24922,-3.63556 -7.60083,-4.9635c-0.78397,-2.96081 -0.41782,-4.40381 -0.41782,-6.46551c0,-3.67345 13.72901,-7.20379 14.99159,-6.18327c0.84108,0.67983 3.10142,3.08876 3.14767,5.05722c0.0367,1.562 -1.00536,3.64679 -1.2182,4.3187z" fill="url(#color-9)" stroke="none" stroke-width="0" stroke-linecap="butt"/><path d="M237.28415,196.89601l4.34358,-9.8854l4.9427,9.8854l-4.49336,-2.54624z" fill="#000000" stroke="none" stroke-width="0" stroke-linecap="butt"/><path d="M246.68028,180.73298c0.04624,-1.96846 2.30658,-4.37739 3.14767,-5.05722c1.26259,-1.02053 14.9916,2.50982 14.9916,6.18327c0,2.06171 0.36615,3.5047 -0.41782,6.46551c-0.35161,1.32793 -3.40139,6.41235 -7.60084,4.9635c-1.19196,-0.41124 -7.79307,-4.73443 -8.9024,-8.23637c-0.21284,-0.6719 -1.2549,-2.7567 -1.2182,-4.3187z" data-paper-data="{&quot;index&quot;:null}" fill="url(#color-10)" stroke="none" stroke-width="0" stroke-linecap="butt"/><g stroke="#c1c1c1" stroke-width="1" stroke-linecap="butt"><path d="M235.99613,211.2146c0.8743,0.07867 2.97354,0.26757 4.50339,0.40523c1.00825,0.09072 1.27059,0.74101 1.17278,1.82806c-0.13613,1.51288 -0.39997,5.2186 -0.77969,5.97621c-0.37243,0.74307 -2.66365,0.02223 -3.5909,-0.06121c-1.53997,-0.13857 -1.55455,-0.29201 -2.45991,-0.37347c-0.77034,-0.06931 -0.01839,-1.2735 -0.22054,-2.12862c-0.22132,-0.93624 -0.14062,-2.42581 -0.01467,-3.82558c0.09724,-1.08069 0.61919,-1.88994 1.38954,-1.82062z" fill="url(#color-11)"/><path d="M243.5436,210.79843c0.8743,0.07867 3.65557,-0.09859 5.1138,0.38409c0.6673,0.22088 0.02531,1.83877 0.14759,3.46687c0.16687,2.22175 0.36552,4.53406 -0.1696,4.48591c-0.8001,-0.07199 -3.02666,0.4183 -4.33122,0.37983c-1.20635,-0.03557 -1.58933,-0.53225 -2.02431,-0.57139c-0.77034,-0.06931 0.09101,-1.64397 -0.11114,-2.49909c-0.22133,-0.93624 -0.14062,-2.42581 -0.01466,-3.82559c0.09724,-1.08069 0.61919,-1.88993 1.38954,-1.82062z" fill="url(#color-12)"/><path d="M250.86788,210.83377c0.8743,0.07867 2.97353,0.26756 4.50339,0.40523c1.00825,0.09072 1.2706,0.74101 1.17279,1.82806c-0.13613,1.51288 -0.31171,4.23772 -0.69143,4.99533c-0.3012,0.60093 -4.42411,0.92871 -5.32947,0.84725c-0.77034,-0.06931 -0.82799,-1.57454 -1.03014,-2.42966c-0.22133,-0.93624 -0.14062,-2.42581 -0.01467,-3.82559c0.09724,-1.08069 0.61919,-1.88993 1.38954,-1.82061z" fill="url(#color-13)"/><path d="M228.42395,210.60931c0.8743,0.07867 2.97353,0.26756 4.50339,0.40523c1.00825,0.09072 1.2706,0.74101 1.17279,1.82806c-0.13613,1.51288 -0.42868,3.84688 -0.8084,4.60449c-0.37243,0.74307 0.23905,1.5765 -0.6882,1.49307c-1.53997,-0.13857 -4.16825,-0.83145 -5.07361,-0.91291c-0.77034,-0.06931 -0.27869,-0.9166 -0.48084,-1.77173c-0.22133,-0.93624 -0.14062,-2.42581 -0.01467,-3.82558c0.09724,-1.08069 0.6192,-1.88993 1.38954,-1.82062z" fill="url(#color-14)"/><path d="M258.54255,209.5112c0.8743,0.07867 2.97353,0.26757 4.50339,0.40523c1.00825,0.09072 1.2706,0.74101 1.17279,1.82806c-0.13613,1.51288 -0.42867,3.84688 -0.8084,4.60449c-0.37243,0.74307 -4.30714,1.31955 -5.21251,1.23808c-0.77034,-0.06931 -0.828,-1.57453 -1.03014,-2.42966c-0.22133,-0.93624 -0.14063,-2.42581 -0.01467,-3.82559c0.09724,-1.08069 0.6192,-1.88993 1.38954,-1.82062z" fill="url(#color-15)"/><path d="M221.77626,210.30741c0.84724,-0.71197 2.3859,-0.87771 2.69461,-0.84993c0.40676,0.0366 1.22767,0.8656 1.60652,2.03112c0.43546,1.3397 0.39036,3.06001 0.1873,3.46516c-0.37243,0.74307 0.07532,2.5506 -0.85192,2.46716c-1.53997,-0.13857 -3.45522,-1.14761 -4.36059,-1.22908c-0.77034,-0.06931 -0.82799,-1.57453 -1.03014,-2.42965c-0.13263,-0.56105 0.4873,-2.39013 1.75422,-3.45478z" fill="url(#color-16)"/></g></g></g></svg>