<svg version="1.1" xmlns="http://www.w3.org/2000/svg" xmlns:xlink="http://www.w3.org/1999/xlink" width="551.05105" height="420.94178" viewBox="0,0,551.05105,420.94178"><defs><radialGradient cx="239.7245" cy="180" r="260.31263" gradientUnits="userSpaceOnUse" id="color-1"><stop offset="0" stop-color="#000000" stop-opacity="0"/><stop offset="1" stop-color="#000000"/></radialGradient></defs><g transform="translate(34.1147,29.03817)"><g data-paper-data="{&quot;isPaintingLayer&quot;:true}" fill-rule="nonzero" stroke-linecap="butt" stroke-linejoin="miter" stroke-miterlimit="10" stroke-dasharray="" stroke-dashoffset="0" style="mix-blend-mode: normal"><path d="M-34.1147,391.90361v-420.94178h551.05105v420.94178z" fill="#000000" stroke="none" stroke-width="0"/><g fill="#181818" stroke="#000000" stroke-width="6"><path d="M2.2245,29.14719v-30h54v30z"/><path d="M58.2245,29.2381v-30h54v30z"/><path d="M113.58814,29.14719v-30h54v30z"/><path d="M169.58814,29.2381v-30h54v30z"/><path d="M227.2245,29.14719v-30h54v30z"/><path d="M283.2245,29.2381v-30h54.00001v30z"/><path d="M338.58814,29.14719v-30h54v30z"/><path d="M393.58814,30.2381v-30h54v30z"/><path d="M446.58814,29.2381v-30h54v30z"/><path d="M-19.7755,64.14719v-30h54v30z"/><path d="M36.2245,64.2381v-30h54v30z"/><path d="M91.58814,64.14719v-30h54v30z"/><path d="M147.58814,64.2381v-30h54v30z"/><path d="M205.2245,64.14719v-30h54v30z"/><path d="M261.2245,64.2381v-30h54.00001v30z"/><path d="M316.58814,64.14719v-30h54v30z"/><path d="M371.58814,65.2381v-30h54v30z"/><path d="M424.58814,64.2381v-30h54v30z"/></g><path d="M-1.7755,99.14719v-30h54v30z" fill="#181818" stroke="#000000" stroke-width="6"/><path d="M54.2245,99.2381v-30h54v30z" fill="#181818" stroke="#000000" stroke-width="6"/><path d="M109.58814,99.14719v-30h54v30z" fill="#181818" stroke="#000000" stroke-width="6"/><path d="M165.58814,99.2381v-30h54v30z" fill="#181818" stroke="#000000" stroke-width="6"/><path d="M223.2245,99.14719v-30h54v30z" fill="#181818" stroke="#000000" stroke-width="6"/><path d="M279.2245,99.2381v-30h54.00001v30z" fill="#181818" stroke="#000000" stroke-width="6"/><path d="M334.58814,99.14719v-30h54v30z" fill="#181818" stroke="#000000" stroke-width="6"/><path d="M389.58814,100.2381v-30h54v30z" fill="#181818" stroke="#000000" stroke-width="6"/><path d="M442.58814,99.2381v-30h54v30z" fill="#181818" stroke="#000000" stroke-width="6"/><path d="M-23.7755,134.14719v-30h54v30z" fill="#181818" stroke="#000000" stroke-width="6"/><path d="M32.2245,134.2381v-30h54v30z" fill="#181818" stroke="#000000" stroke-width="6"/><path d="M87.58814,134.14719v-30h54v30z" fill="#181818" stroke="#000000" stroke-width="6"/><path d="M143.58814,134.2381v-30h54v30z" fill="#181818" stroke="#000000" stroke-width="6"/><path d="M201.2245,134.14719v-30h54v30z" fill="#181818" stroke="#000000" stroke-width="6"/><path d="M257.2245,134.2381v-30h54.00001v30z" fill="#181818" stroke="#000000" stroke-width="6"/><path d="M312.58814,134.14719v-30h54v30z" fill="#181818" stroke="#000000" stroke-width="6"/><path d="M367.58814,134.2381v-30h54v30z" fill="#181818" stroke="#000000" stroke-width="6"/><path d="M420.58814,134.2381v-30h54v30z" fill="#181818" stroke="#000000" stroke-width="6"/><path d="M-1.7755,169.14719v-30h54v30z" fill="#181818" stroke="#000000" stroke-width="6"/><path d="M54.2245,169.2381v-30h54v30z" fill="#181818" stroke="#000000" stroke-width="6"/><path d="M109.58814,169.14719v-30h54v30z" fill="#181818" stroke="#000000" stroke-width="6"/><path d="M165.58814,169.2381v-30h54v30z" fill="#181818" stroke="#000000" stroke-width="6"/><path d="M223.2245,169.14719v-30h54v30z" fill="#181818" stroke="#000000" stroke-width="6"/><path d="M279.2245,169.2381v-30h54.00001v30z" fill="#181818" stroke="#000000" stroke-width="6"/><path d="M334.58814,169.14719v-30h54v30z" fill="#181818" stroke="#000000" stroke-width="6"/><path d="M389.58814,170.2381v-30h54v30z" fill="#181818" stroke="#000000" stroke-width="6"/><path d="M442.58814,169.2381v-30h54v30z" fill="#181818" stroke="#000000" stroke-width="6"/><path d="M-23.7755,204.14719v-30h54v30z" fill="#181818" stroke="#000000" stroke-width="6"/><path d="M32.2245,204.2381v-30h54v30z" fill="#181818" stroke="#000000" stroke-width="6"/><path d="M87.58814,204.14719v-30h54v30z" fill="#181818" stroke="#000000" stroke-width="6"/><path d="M143.58814,204.2381v-30h54v30z" fill="#181818" stroke="#000000" stroke-width="6"/><path d="M201.2245,204.14719v-30h54v30z" fill="#181818" stroke="#000000" stroke-width="6"/><path d="M257.2245,204.2381v-30h54.00001v30z" fill="#181818" stroke="#000000" stroke-width="6"/><path d="M312.58814,204.14719v-30h54v30z" fill="#181818" stroke="#000000" stroke-width="6"/><path d="M367.58814,204.2381v-30h54v30z" fill="#181818" stroke="#000000" stroke-width="6"/><path d="M420.58814,204.2381v-30h54v30z" fill="#181818" stroke="#000000" stroke-width="6"/><path d="M-0.7755,238.14719v-30h54v30z" fill="#181818" stroke="#000000" stroke-width="6"/><path d="M55.2245,238.2381v-30h54v30z" fill="#181818" stroke="#000000" stroke-width="6"/><path d="M110.58814,238.14719v-30h54v30z" fill="#181818" stroke="#000000" stroke-width="6"/><path d="M166.58814,238.2381v-30h54v30z" fill="#181818" stroke="#000000" stroke-width="6"/><path d="M224.2245,238.14719v-30h54v30z" fill="#181818" stroke="#000000" stroke-width="6"/><path d="M280.2245,238.2381v-30h54v30z" fill="#181818" stroke="#000000" stroke-width="6"/><path d="M335.58814,238.14719v-30h54v30z" fill="#181818" stroke="#000000" stroke-width="6"/><path d="M390.58814,239.2381v-30h54v30z" fill="#181818" stroke="#000000" stroke-width="6"/><path d="M443.58814,238.2381v-30h53.99999v30z" fill="#181818" stroke="#000000" stroke-width="6"/><path d="M-22.7755,273.14719v-30h54v30z" fill="#181818" stroke="#000000" stroke-width="6"/><path d="M33.2245,273.2381v-30h54v30z" fill="#181818" stroke="#000000" stroke-width="6"/><path d="M88.58814,273.14719v-30h54v30z" fill="#181818" stroke="#000000" stroke-width="6"/><path d="M144.58814,273.2381v-30h54v30z" fill="#181818" stroke="#000000" stroke-width="6"/><path d="M202.2245,273.14719v-30h54v30z" fill="#181818" stroke="#000000" stroke-width="6"/><path d="M258.2245,273.2381v-30h54v30z" fill="#181818" stroke="#000000" stroke-width="6"/><path d="M313.58814,273.14719v-30h54v30z" fill="#181818" stroke="#000000" stroke-width="6"/><path d="M368.58814,273.2381v-30h54v30z" fill="#181818" stroke="#000000" stroke-width="6"/><path d="M421.58814,273.2381v-30h54v30z" fill="#181818" stroke="#000000" stroke-width="6"/><path d="M-4.7755,308.14719v-30h54v30z" fill="#181818" stroke="#000000" stroke-width="6"/><path d="M51.2245,308.2381v-30h54v30z" fill="#181818" stroke="#000000" stroke-width="6"/><path d="M106.58814,308.14719v-30h54v30z" fill="#181818" stroke="#000000" stroke-width="6"/><path d="M162.58814,308.2381v-30h54v30z" fill="#181818" stroke="#000000" stroke-width="6"/><path d="M220.2245,308.14719v-30h54v30z" fill="#181818" stroke="#000000" stroke-width="6"/><path d="M276.2245,308.2381v-30h54v30z" fill="#181818" stroke="#000000" stroke-width="6"/><path d="M331.58814,308.14719v-30h54v30z" fill="#181818" stroke="#000000" stroke-width="6"/><path d="M386.58814,309.2381v-30h54v30z" fill="#181818" stroke="#000000" stroke-width="6"/><path d="M439.58814,308.2381v-30h54v30z" fill="#181818" stroke="#000000" stroke-width="6"/><path d="M-26.7755,343.14719v-30h54v30z" fill="#181818" stroke="#000000" stroke-width="6"/><path d="M29.2245,343.2381v-30h54v30z" fill="#181818" stroke="#000000" stroke-width="6"/><path d="M84.58814,343.14719v-30h54v30z" fill="#181818" stroke="#000000" stroke-width="6"/><path d="M140.58814,343.2381v-30h54v30z" fill="#181818" stroke="#000000" stroke-width="6"/><path d="M198.2245,343.14719v-30h54v30z" fill="#181818" stroke="#000000" stroke-width="6"/><path d="M254.2245,343.2381v-30h54v30z" fill="#181818" stroke="#000000" stroke-width="6"/><path d="M309.58814,343.14719v-30h54v30z" fill="#181818" stroke="#000000" stroke-width="6"/><path d="M364.58814,344.2381v-30h54v30z" fill="#181818" stroke="#000000" stroke-width="6"/><path d="M417.58814,343.2381v-30h54v30z" fill="#181818" stroke="#000000" stroke-width="6"/><path d="M-4.7755,379.14719v-30h54v30z" fill="#181818" stroke="#000000" stroke-width="6"/><path d="M51.2245,379.2381v-30h54v30z" fill="#181818" stroke="#000000" stroke-width="6"/><path d="M106.58814,379.14719v-30h54v30z" fill="#181818" stroke="#000000" stroke-width="6"/><path d="M162.58814,379.2381v-30h54v30z" fill="#181818" stroke="#000000" stroke-width="6"/><path d="M220.2245,379.14719v-30h54v30z" fill="#181818" stroke="#000000" stroke-width="6"/><path d="M276.2245,379.2381v-30h54v30z" fill="#181818" stroke="#000000" stroke-width="6"/><path d="M331.58814,379.14719v-30h54v30z" fill="#181818" stroke="#000000" stroke-width="6"/><path d="M386.58814,380.2381v-30h54v30z" fill="#181818" stroke="#000000" stroke-width="6"/><path d="M439.58814,379.2381v-30h54v30z" fill="#181818" stroke="#000000" stroke-width="6"/><path d="M-20.58814,378.35281v-396.70562h520.62528v396.70562z" fill="url(#color-1)" stroke="none" stroke-width="NaN"/></g></g></svg>