<svg version="1.1" xmlns="http://www.w3.org/2000/svg" xmlns:xlink="http://www.w3.org/1999/xlink" width="34.67868" height="34.11055" viewBox="0,0,34.67868,34.11055"><defs><radialGradient cx="240" cy="180.00002" r="15.83934" gradientUnits="userSpaceOnUse" id="color-1"><stop offset="0" stop-color="#91a0ff"/><stop offset="1" stop-color="#333a5a"/></radialGradient><linearGradient x1="252.88931" y1="174.17455" x2="233.96952" y2="175.66042" gradientUnits="userSpaceOnUse" id="color-2"><stop offset="0" stop-color="#ffffff"/><stop offset="1" stop-color="#6effff"/></linearGradient><radialGradient cx="239.8996" cy="175.1947" r="13.0297" gradientUnits="userSpaceOnUse" id="color-3"><stop offset="0" stop-color="#05004c"/><stop offset="1" stop-color="#000000"/></radialGradient></defs><g transform="translate(-222.66066,-162.94475)"><g data-paper-data="{&quot;isPaintingLayer&quot;:true}" fill-rule="nonzero" stroke-linecap="butt" stroke-linejoin="miter" stroke-miterlimit="10" stroke-dasharray="" stroke-dashoffset="0" style="mix-blend-mode: normal"><path d="M224.16066,195.5553v-31.11055h31.67868v31.11055z" fill="url(#color-1)" stroke="#2d334f" stroke-width="3"/><path d="M233.24322,166.41231l0.63192,5.35536c0,0 11.57504,-5.03993 17.07534,-0.43874c3.52485,2.94866 3.7594,11.65727 1.25787,16.90061c-1.40195,2.93857 -14.56036,4.29233 -20.13336,3.89756c-3.25395,-0.2305 12.74899,-3.99097 13.28861,-7.13501c0.51916,-3.02481 0.45491,-8.87783 -0.62118,-8.8456c-3.39204,0.1016 -10.35792,3.38149 -10.35792,3.38149l0.31132,5.38054l-6.8934,-6.66878z" fill="url(#color-2)" stroke="url(#color-3)" stroke-width="1.5"/></g></g></svg>