<svg version="1.1" xmlns="http://www.w3.org/2000/svg" xmlns:xlink="http://www.w3.org/1999/xlink" width="32.81519" height="45.97345" viewBox="0,0,32.81519,45.97345"><defs><linearGradient x1="238.41706" y1="173.04617" x2="227.3668" y2="169.77034" gradientUnits="userSpaceOnUse" id="color-1"><stop offset="0" stop-color="#6effff"/><stop offset="1" stop-color="#ffffff"/></linearGradient><linearGradient x1="229.56007" y1="194.02328" x2="226.09941" y2="202.25257" gradientUnits="userSpaceOnUse" id="color-2"><stop offset="0" stop-color="#919191"/><stop offset="1" stop-color="#000000"/></linearGradient><linearGradient x1="239.44465" y1="173.1526" x2="250.20042" y2="177.29419" gradientUnits="userSpaceOnUse" id="color-3"><stop offset="0" stop-color="#6effff"/><stop offset="1" stop-color="#ffffff"/></linearGradient></defs><g transform="translate(-223.59241,-157.01327)"><g data-paper-data="{&quot;isPaintingLayer&quot;:true}" fill-rule="nonzero" stroke="none" stroke-width="0" stroke-linecap="butt" stroke-linejoin="miter" stroke-miterlimit="10" stroke-dasharray="" stroke-dashoffset="0" style="mix-blend-mode: normal"><path d="M224.14969,179.96693c-2.59693,5.85427 4.69678,-22.70654 5.20498,-22.95366c1.9727,6.16815 10.78278,10.22951 10.78278,10.22951c0,0 -2.178,6.42382 -3.47612,10.42879c-3.47118,-1.97045 -8.9049,-5.83535 -12.51164,2.29536z" data-paper-data="{&quot;index&quot;:null}" fill="url(#color-1)"/><path d="M225.213,201.51845c0,0 11.46093,-26.2097 13.16276,-30.15281c0.1575,-0.36494 1.43838,-4.21334 1.43838,-4.21334c0,0 14.97856,2.13303 13.8161,5.94791c-0.3122,1.02455 -8.47275,19.33807 -6.6626,12.99527c2.09337,-7.33518 -8.55122,-9.3939 -9.0841,-8.1685c-2.7463,6.31523 -10.89773,25.05975 -10.89773,25.05975z" fill="url(#color-2)"/><path d="M238.01584,177.88922c1.41318,-3.96583 3.60389,-10.38532 3.60389,-10.38532c0,0 9.45921,2.153 14.78382,-1.53293c0.25211,0.50574 -11.38212,27.59011 -9.87074,21.36659c2.09909,-8.64354 -4.56426,-8.89351 -8.51698,-9.44833z" fill="url(#color-3)"/></g></g></svg>